<svg height="512" viewBox="0 0 59 58" width="512" xmlns="http://www.w3.org/2000/svg"><g id="Page-1" fill="none" fill-rule="evenodd"><g id="011---Search" fill-rule="nonzero"><path id="Shape" d="m37.53 33.95 5.08 5.08-3.54 3.53-5.07-5.07z" fill="#95a5a5"/><path id="Shape" d="m42 21c0 11.5979797-9.4020203 21-21 21-11.59797975 0-21-9.4020203-21-21 0-11.59797975 9.40202025-21 21-21 5.5777044-.02675204 10.9346941 2.1771499 14.8787721 6.12122789 3.944078 3.94407801 6.1479799 9.30106771 6.1212279 14.87877211z" fill="#3b97d3"/><circle id="Oval" cx="21" cy="21" fill="#84b5cb" r="16"/><path id="Shape" d="m34.91 13.09c-6.2618699-3.56415854-14.1335824-2.5032086-19.2283955 2.5916045s-6.15576304 12.9665256-2.5916045 19.2283955c-5.86665771-3.3392099-9.00647005-10.0011562-7.847896-16.651397 1.15857404-6.6502407 6.3662583-11.85792496 13.016499-13.016499 6.6502408-1.15857405 13.3121871 1.98123829 16.651397 7.847896z" fill="#9fc9d3"/><path id="Shape" d="m21 38c-9.3888407 0-17-7.6111593-17-17s7.6111593-17 17-17 17 7.6111593 17 17c-.010471 9.3845001-7.6154999 16.989529-17 17zm0-32c-8.2842712 0-15 6.7157288-15 15s6.7157288 15 15 15 15-6.7157288 15-15c-.0093685-8.2803876-6.7196124-14.99063148-15-15z" fill="#ecf0f1"/><path id="Shape" d="m40.82 47.148-1.75-1.748c-.3755541-.3751365-.5865733-.8841815-.5865733-1.415s.2110192-1.0398635.5865733-1.415l3.54-3.53c.3732815-.3790282.8830212-.5924538 1.415-.5924538s1.0417185.2134256 1.415.5924538l12.02 12.02c.3755541.3751365.5865733.8841815.5865733 1.415s-.2110192 1.0398635-.5865733 1.415l-3.54 3.53c-.3751365.3755541-.8841815.5865733-1.415.5865733s-1.0398635-.2110192-1.415-.5865733l-7.27-7.27z" fill="#285680"/><path id="Shape" d="m22 20.068v-7.987c2.279.372 4 1.987 4 3.919 0 .5522847.4477153 1 1 1s1-.4477153 1-1c0-3.017-2.613-5.513-6-5.932v-1.068c0-.55228475-.4477153-1-1-1s-1 .44771525-1 1v1.068c-3.387.419-6 2.915-6 5.932s2.613 5.513 6 5.932v7.987c-2.279-.372-4-1.987-4-3.919 0-.5522847-.4477153-1-1-1s-1 .4477153-1 1c0 3.017 2.613 5.513 6 5.932v1.068c0 .5522847.4477153 1 1 1s1-.4477153 1-1v-1.068c3.387-.419 6-2.915 6-5.932s-2.613-5.513-6-5.932zm-6-4.068c0-1.932 1.721-3.547 4-3.919v7.838c-2.279-.372-4-1.987-4-3.919zm6 13.919v-7.838c2.279.372 4 1.987 4 3.919s-1.721 3.547-4 3.919z" fill="#fff"/></g></g></svg>