<?xml version="1.0" encoding="utf-8"?>
<!-- Generator: Adobe Illustrator 25.2.1, SVG Export Plug-In . SVG Version: 6.00 Build 0)  -->
<svg version="1.1" id="Capa_1" xmlns="http://www.w3.org/2000/svg" xmlns:xlink="http://www.w3.org/1999/xlink" x="0px" y="0px"
	 viewBox="0 0 729.4 711.7" style="enable-background:new 0 0 729.4 711.7;" xml:space="preserve">
<style type="text/css">
	.st0{fill:#F5CBAA;}
	.st1{fill:#3ED87E;}
	.st2{fill:#FFFFFF;}
	.st3{fill:#4C4854;}
	.st4{fill:#F4F4F4;}
	.st5{fill:#FFCD00;}
	.st6{fill:#EBBF00;}
	.st7{fill:#6D6E71;}
	.st8{fill:#F7941D;}
	.st9{fill:#006DF0;}
	.st10{fill:#005ECE;}
	.st11{fill:#FFBCAB;}
	.st12{fill:#F15A29;}
	.st13{fill:#231F20;}
	.st14{fill:#FFDD55;}
	.st15{fill:#EDBE00;}
	.st16{fill:#FFCCBD;}
	.st17{fill:#F9A58D;}
	.st18{fill:#A30F59;}
	.st19{fill:#840C48;}
	.st20{fill:#00C6CD;}
</style>
<g id="Layer_Imagen">
	<path d="M590.8,478v224.3c0,5.2-4.2,9.3-9.3,9.3h-65.4c-3.5,0-6.9-0.2-10.4-0.5l1,0.5H245.1c-25.8,0-46.7-20.9-46.7-46.7V197.7
		c0-25.8,20.9-46.7,46.7-46.7h224.3c25.8,0,46.7,20.9,46.7,46.7v128.5l69.3,129.9C588.9,462.8,590.8,470.4,590.8,478z M581.5,702.3
		V478c0-6.1-1.5-12.2-4.4-17.6l-70.3-131.9V197.7c0-20.6-16.7-37.4-37.4-37.4H245.1c-20.6,0-37.4,16.7-37.4,37.4v467.2
		c0,20.6,16.7,37.4,37.4,37.4l0,0h224.3c6.2,0,12.4-1.6,17.9-4.5c9.3,3,19,4.6,28.8,4.5H581.5z"/>
	<path d="M581.5,478v224.3h-65.4c-9.8,0-19.5-1.5-28.8-4.5c3.4-1.9,6.6-4.3,9.2-7.1c6.4,1.5,13,2.3,19.6,2.3h56.1V478
		c0-4.6-1.1-9.1-3.3-13.2l-52.8-98.9v186.9c0,5.2-4.2,9.3-9.3,9.3V328.5l70.4,131.9C580,465.9,581.5,471.9,581.5,478z"/>
	<path class="st0" d="M572.1,478v215h-56.1c-6.6,0-13.2-0.8-19.6-2.3c6.6-6.9,10.3-16.1,10.2-25.7V562.2c5.2,0,9.3-4.2,9.3-9.3
		V365.9l52.8,98.9C571,468.9,572.1,473.5,572.1,478z"/>
	<path class="st0" d="M506.7,608.9v56.1c0,9.6-3.7,18.8-10.2,25.7c-37.2-9-63.6-41.8-64.5-80c0.1-0.6,0.2-1.2,0.2-1.8L506.7,608.9z"
		/>
	<path class="st0" d="M506.7,562.2v46.7h-74.6c0-1.9-0.6-3.7-1.6-5.2l-60.6-89.7c-8.7-12.8-5.3-30.3,7.5-38.9
		c12.8-8.7,30.3-5.3,38.9,7.5l0.2,0.2l54.5,75.5c1.8,2.4,4.6,3.9,7.6,3.9L506.7,562.2z"/>
	<path d="M506.7,552.8v9.3h-28c-3,0-5.8-1.4-7.6-3.9l-54.5-75.5l-0.2-0.2c-8.7-12.8-26.1-16.2-38.9-7.5
		c-12.8,8.7-16.2,26.1-7.5,38.9l60.6,89.7c1,1.5,1.6,3.4,1.6,5.2h-9.3l-60.7-89.7c-11.8-16.9-7.6-40.2,9.3-52
		c16.9-11.8,40.2-7.6,52,9.3c0.2,0.3,0.4,0.6,0.6,0.9l54.6,75.5H506.7z"/>
	<path d="M506.7,328.5v224.3h-28l-54.6-75.5c-11.3-17.3-34.5-22.1-51.8-10.8c-17.3,11.3-22.1,34.5-10.8,51.8
		c0.2,0.3,0.4,0.6,0.6,0.9l60.6,89.7H207.7V235.1h299L506.7,328.5z M497.4,543.5v-299H217.1v355.1h188.2l-50.8-75.1
		c-14.5-21.4-8.9-50.4,12.4-64.9c21.4-14.5,50.4-8.9,64.9,12.4l51.7,71.5H497.4z"/>
	<path d="M506.7,197.7v37.4h-299v-37.4c0-20.6,16.7-37.4,37.4-37.4h224.2C490,160.3,506.7,177.1,506.7,197.7z M497.4,225.7v-28
		c0-15.5-12.5-28-28-28H245.1c-15.5,0-28,12.5-28,28v28H497.4z"/>
	<path class="st1" d="M497.4,328.5v214.9h-13.9l-51.7-71.5c-14.5-21.4-43.5-26.9-64.9-12.4C345.5,474,340,503,354.5,524.4l50.8,75.1
		H217.1V244.4h280.3V328.5z M478.7,422v-37.4c0-5.2-4.2-9.4-9.3-9.4h-56.1c-5.2,0-9.3,4.2-9.3,9.3c0,0,0,0,0,0V422
		c0,5.2,4.2,9.3,9.3,9.3h56.1C474.5,431.3,478.7,427.2,478.7,422z M478.7,347.2v-74.8c0-5.2-4.2-9.3-9.3-9.3H245.1
		c-5.2,0-9.3,4.2-9.4,9.3v74.8c0,5.2,4.2,9.3,9.4,9.3h224.3C474.5,356.6,478.7,352.4,478.7,347.2L478.7,347.2z M385.2,384.6
		c0-5.2-4.2-9.3-9.3-9.4c0,0,0,0,0,0H245.1c-5.2-0.2-9.5,3.9-9.7,9c-0.2,5.2,3.9,9.5,9,9.7c0.2,0,0.4,0,0.6,0h130.8
		C381.1,394,385.3,389.8,385.2,384.6C385.3,384.6,385.3,384.6,385.2,384.6L385.2,384.6z M385.2,422c0-5.2-4.2-9.3-9.3-9.3h0h-56.1
		c-5.2,0.2-9.2,4.5-9,9.7c0.2,4.9,4.1,8.9,9,9h56.1C381.1,431.3,385.3,427.2,385.2,422L385.2,422z M329.2,534.1
		c0-5.2-4.2-9.3-9.4-9.3h-74.8c-5.2-0.2-9.5,3.9-9.7,9c-0.2,5.2,3.9,9.5,9,9.7c0.2,0,0.4,0,0.6,0h74.8
		C325,543.5,329.2,539.3,329.2,534.1z M329.2,571.5c0-5.2-4.2-9.4-9.3-9.4s-9.4,4.2-9.4,9.3c0,5.2,4.2,9.4,9.3,9.4c0,0,0,0,0,0
		C325,580.8,329.2,576.7,329.2,571.5z M310.5,459.4c0-5.2-4.2-9.3-9.4-9.3h-56.1c-5.2,0-9.3,4.2-9.3,9.3c0,5.2,4.2,9.3,9.3,9.3
		c0,0,0,0,0,0h56.1C306.3,468.7,310.5,464.5,310.5,459.4z M310.5,496.7c0-5.2-4.2-9.3-9.4-9.3h-56.1c-5.2-0.2-9.5,3.9-9.7,9
		c-0.2,5.2,3.9,9.5,9,9.7c0.2,0,0.4,0,0.6,0h56.1C306.3,506.1,310.5,501.9,310.5,496.7z M291.8,422c0-5.2-4.2-9.3-9.3-9.3
		c0,0,0,0,0,0h-37.4c-5.2-0.2-9.5,3.9-9.7,9c-0.2,5.2,3.9,9.5,9,9.7c0.2,0,0.4,0,0.6,0h37.4C287.6,431.3,291.8,427.2,291.8,422z
		 M291.8,571.5c0-5.2-4.2-9.4-9.3-9.4c-5.2,0-9.4,4.2-9.4,9.3c0,5.2,4.2,9.4,9.4,9.4c0,0,0,0,0,0
		C287.6,580.9,291.8,576.7,291.8,571.5C291.8,571.5,291.8,571.5,291.8,571.5L291.8,571.5z M254.4,571.5c0-5.2-4.2-9.4-9.3-9.4
		c-5.2,0-9.4,4.2-9.4,9.3c0,5.2,4.2,9.4,9.4,9.4c0,0,0,0,0,0C250.2,580.9,254.4,576.7,254.4,571.5
		C254.4,571.5,254.4,571.5,254.4,571.5L254.4,571.5z"/>
	<path class="st2" d="M497.4,197.7v28H217.1v-28c0-15.5,12.5-28,28-28h224.3C484.8,169.7,497.3,182.3,497.4,197.7z M422.6,197.7
		c0-5.2-4.2-9.3-9.3-9.3l0,0h-65.4c-5.2,0-9.3,4.2-9.3,9.3c0,5.2,4.2,9.3,9.3,9.3c0,0,0,0,0,0h65.4
		C418.4,207,422.6,202.9,422.6,197.7L422.6,197.7z M310.5,197.7c0-5.2-4.2-9.4-9.3-9.4c-5.2,0-9.4,4.2-9.4,9.3
		c0,5.2,4.2,9.4,9.3,9.4c0,0,0,0,0,0C306.3,207.1,310.5,202.9,310.5,197.7L310.5,197.7z"/>
	<path d="M496.5,690.7c-2.7,2.8-5.8,5.2-9.2,7.1c-38.5-12.5-64.6-48.4-64.6-88.9h9.5c0,0.6-0.1,1.2-0.2,1.8
		C432.8,648.9,459.3,681.7,496.5,690.7z"/>
	<path d="M478.7,384.6V422c0,5.2-4.2,9.3-9.3,9.3h-56.1c-5.2,0-9.3-4.2-9.3-9.3v-37.4c0-5.2,4.2-9.3,9.3-9.4c0,0,0,0,0,0h56.1
		C474.5,375.3,478.7,379.4,478.7,384.6z M469.4,422v-37.4h-56.1V422H469.4z"/>
	<path d="M478.7,272.5v74.8c0,5.2-4.2,9.3-9.3,9.3H245.1c-5.2,0-9.3-4.2-9.4-9.3v-74.8c0-5.2,4.2-9.3,9.4-9.3h224.3
		C474.5,263.1,478.7,267.3,478.7,272.5z M469.4,347.2v-74.8H245.1v74.8H469.4z"/>
	<path d="M487.2,697.8c-5.5,3-11.6,4.5-17.9,4.5H245.1c-20.6,0-37.4-16.7-37.4-37.4l0,0v-56.1h214.9
		C422.6,649.4,448.7,685.3,487.2,697.8z M245.1,693h212c-24.7-17.3-40.6-44.7-43.3-74.8H217.1V665C217.1,680.4,229.6,693,245.1,693z
		"/>
	<path d="M469.4,384.6V422h-56.1v-37.4H469.4z M460,412.6V394h-37.4v18.7L460,412.6z"/>
	<path d="M469.4,272.5v74.8H245.1v-74.8H469.4z M460,337.9v-56.1H254.4v56.1H460z"/>
	<rect x="422.6" y="394" class="st3" width="37.4" height="18.7"/>
	<path class="st4" d="M460,281.8v56.1H254.4v-56.1H460z M366.6,309.8c0-5.2-4.2-9.3-9.3-9.3l0,0h-74.7c-5.2-0.2-9.5,3.9-9.7,9
		c-0.2,5.2,3.9,9.5,9,9.7c0.2,0,0.4,0,0.6,0h74.8C362.4,319.2,366.6,315,366.6,309.8C366.6,309.9,366.6,309.9,366.6,309.8
		L366.6,309.8z"/>
	<path class="st2" d="M457.1,693h-212c-15.5,0-28-12.5-28-28v-46.8h196.7C416.5,648.3,432.3,675.7,457.1,693z M357.2,683.7
		c15.5,0,28-12.5,28-28s-12.5-28-28-28c-15.5,0-28,12.5-28,28C329.2,671.1,341.8,683.6,357.2,683.7L357.2,683.7z"/>
	<path d="M413.3,188.4c5.2,0,9.3,4.2,9.3,9.3c0,5.2-4.2,9.3-9.3,9.3h-65.4c-5.2,0-9.3-4.2-9.3-9.3c0-5.2,4.2-9.3,9.3-9.3
		c0,0,0,0,0,0H413.3z"/>
	<path d="M375.9,375.3c5.2,0.2,9.2,4.5,9,9.7c-0.2,4.9-4.1,8.9-9,9H245.1c-5.2,0.2-9.5-3.9-9.7-9c-0.2-5.2,3.9-9.5,9-9.7
		c0.2,0,0.4,0,0.6,0H375.9z"/>
	<path d="M375.9,412.6c5.2,0.2,9.2,4.5,9,9.7c-0.2,4.9-4.1,8.9-9,9h-56.1c-5.2-0.2-9.2-4.5-9-9.7c0.2-4.9,4.1-8.9,9-9H375.9z"/>
	<path d="M385.3,655.6c0,15.5-12.5,28-28,28c-15.5,0-28-12.5-28-28s12.5-28,28-28C372.7,627.6,385.3,640.1,385.3,655.6z
		 M366.6,655.6c0-5.2-4.2-9.3-9.3-9.3s-9.3,4.2-9.3,9.3c0,5.2,4.2,9.3,9.3,9.3C362.4,665,366.6,660.8,366.6,655.6
		C366.6,655.6,366.6,655.6,366.6,655.6L366.6,655.6z"/>
	<path d="M357.2,300.5c5.2,0.2,9.2,4.5,9,9.7c-0.2,4.9-4.1,8.9-9,9h-74.8c-5.2,0.2-9.5-3.9-9.7-9c-0.2-5.2,3.9-9.5,9-9.7
		c0.2,0,0.4,0,0.6,0H357.2z"/>
	<circle class="st2" cx="357.2" cy="655.6" r="9.3"/>
	<path d="M319.8,524.8c5.2-0.2,9.5,3.9,9.7,9c0.2,5.2-3.9,9.5-9,9.7c-0.2,0-0.4,0-0.6,0h-74.8c-5.2,0.2-9.5-3.9-9.7-9
		c-0.2-5.2,3.9-9.5,9-9.7c0.2,0,0.4,0,0.6,0H319.8z"/>
	<path d="M319.8,562.2c5.2,0,9.4,4.2,9.4,9.3c0,5.2-4.2,9.4-9.3,9.4c-5.2,0-9.4-4.2-9.4-9.3c0,0,0,0,0,0
		C310.5,566.3,314.7,562.2,319.8,562.2z"/>
	<path d="M301.1,188.4c5.2,0,9.3,4.2,9.3,9.3s-4.2,9.3-9.3,9.3c-5.2,0-9.3-4.2-9.3-9.3l0,0C291.8,192.6,296,188.4,301.1,188.4z"/>
	<path d="M301.1,450c5.2,0,9.3,4.2,9.3,9.3c0,5.2-4.2,9.3-9.3,9.3c0,0,0,0,0,0h-56.1c-5.2,0-9.3-4.2-9.3-9.3c0-5.2,4.2-9.3,9.3-9.3
		c0,0,0,0,0,0H301.1z"/>
	<path d="M301.1,487.4c5.2-0.2,9.5,3.9,9.7,9c0.2,5.2-3.9,9.5-9,9.7c-0.2,0-0.4,0-0.6,0h-56.1c-5.2,0.2-9.5-3.9-9.7-9
		c-0.2-5.2,3.9-9.5,9-9.7c0.2,0,0.4,0,0.6,0H301.1z"/>
	<path d="M282.5,412.6c5.2,0.2,9.2,4.5,9,9.7c-0.2,4.9-4.1,8.9-9,9h-37.4c-5.2,0.2-9.5-3.9-9.7-9c-0.2-5.2,3.9-9.5,9-9.7
		c0.2,0,0.4,0,0.6,0H282.5z"/>
	<path d="M282.5,562.2c5.2,0,9.4,4.2,9.3,9.4c0,5.2-4.2,9.3-9.4,9.3c-5.2,0-9.3-4.2-9.3-9.4c0,0,0,0,0,0
		C273.1,566.3,277.3,562.2,282.5,562.2C282.5,562.2,282.5,562.2,282.5,562.2z"/>
	<path d="M245.1,562.2c5.2,0,9.4,4.2,9.3,9.4c0,5.2-4.2,9.3-9.4,9.3c-5.2,0-9.3-4.2-9.3-9.4c0,0,0,0,0,0
		C235.7,566.3,239.9,562.2,245.1,562.2C245.1,562.2,245.1,562.2,245.1,562.2z"/>
	<path d="M367.1,18.6v9.5h-9.5v-9.5H367.1z M357.6,74.6v13.6h9.5V74.6H357.6z M386.2,126.4v-9.5h-9.5v-9.6h-9.5v19.1H386.2z
		 M405.3,55.5h-28.6v9.5h28.6V55.5z M405.3,74.6h13.4v-9.6h-13.4V74.6z M405.3,88.2v9.5h22.9V74.6h-9.5v13.6L405.3,88.2z M376.7,4.2
		h-9.5v14.3h9.5V4.2z M367.1,47.2h9.5v-19h-9.5v9.5h-9.5v27.4h9.5L367.1,47.2z M306.1,55.5v19.1h9.5V65h14.3v-9.5H306.1z
		 M376.7,74.6V65h-9.5v9.6H376.7z M395.8,84.1h9.5v-9.5h-9.5V84.1z M418.7,65h9.5v-9.5h-9.5V65z M386.2,74.6h-9.5v13.6h-9.5v9.5
		h19.1L386.2,74.6z M357.6,107.3h9.5v-9.5h-9.5V107.3z M386.2,97.8v9.5h19.1v-9.5H386.2z M414.9,116.9v-9.6h-9.5v9.6H414.9z
		 M428.2,126.4v-9.5h-13.4v9.5H428.2z M395.8,126.4h9.5v-9.5h-9.5V126.4z M349,65.1v-9.5h-9.5v9.5h-9.5v9.6h27.7v-9.6H349z
		 M349,47.2h-42.9V4.3H349L349,47.2z M339.5,13.8h-23.9v23.9h23.9L339.5,13.8z M332.3,21h-9.5v9.6h9.5V21z M428.2,4.3v42.9h-42.9
		V4.3L428.2,4.3z M418.7,13.8h-23.9v23.9h23.9V13.8z M411.5,21H402v9.6h9.5V21z M306.1,83.5H349v42.9h-42.9L306.1,83.5z
		 M315.6,116.9h23.9V93h-23.9L315.6,116.9z M322.8,109.7h9.5v-9.5h-9.5V109.7z"/>
	<g id="Credit_card-2">
		<path class="st5" d="M725,40.4v37.1c0,6.8-5.5,12.3-12.3,12.4H601.5c-6.8,0-12.3-5.5-12.3-12.4V40.4H725z"/>
		<path class="st6" d="M669.5,89.8h43.2c6.8,0,12.3-5.5,12.3-12.4V34.2C725.1,64.9,700.2,89.8,669.5,89.8L669.5,89.8z"/>
		<path class="st5" d="M589.2,21.9V28H725v-6.2c0-6.8-5.5-12.3-12.3-12.3H601.5C594.7,9.5,589.2,15,589.2,21.9
			C589.2,21.8,589.2,21.8,589.2,21.9z"/>
		<path class="st7" d="M589.2,28H725v12.4H589.2V28z"/>
		<circle class="st8" cx="703.4" cy="68.2" r="9.3"/>
		<path class="st9" d="M546,108.3V167h30.9v-58.7H546z"/>
		<path class="st10" d="M567.6,108.3h9.3V167h-9.3V108.3z"/>
		<path class="st11" d="M673.8,125.3l38.6-22.3c4.4-2.6,10.1-1,12.7,3.4c2.6,4.4,1,10.1-3.4,12.7l0,0l-69.8,43.4
			c-4.6,2.9-10.1,4.1-15.5,3.6l-52.2-5.2c-0.8-0.1-1.7-0.1-2.5-0.1h-4.9v-43.2h3.8c1.6,0,3.1-0.3,4.6-0.9l17.9-7.2
			c7-2.8,14.7-3.4,22.1-1.7l41.9,9.6c4.9,1.3,7.9,6.3,6.6,11.3c0,0,0,0,0,0.1l0,0c-1.3,4.9-6.4,7.9-11.3,6.6c0,0,0,0,0,0l0,0
			l-29.8-5.8"/>
		<circle class="st12" cx="688" cy="68.2" r="9.3"/>
		<path class="st13" d="M601.5,92.9h111.2c8.5,0,15.4-6.9,15.4-15.4V21.9c0-8.5-6.9-15.4-15.4-15.4H601.5c-8.5,0-15.4,6.9-15.4,15.4
			v55.6C586.1,86,593,92.9,601.5,92.9z M712.7,86.7H601.5c-5.1,0-9.3-4.1-9.3-9.3l0,0v-34h129.7v34
			C721.9,82.5,717.8,86.7,712.7,86.7z M592.3,31.1h129.7v6.2H592.3V31.1z M601.5,12.6h111.2c5.1,0,9.3,4.1,9.3,9.2c0,0,0,0,0,0v3.1
			H592.3v-3.1C592.3,16.7,596.4,12.6,601.5,12.6C601.5,12.6,601.5,12.6,601.5,12.6z"/>
		<path class="st13" d="M703.4,55.8c-2.8,0-5.6,1-7.8,2.8c-5.3-4.3-13.1-3.5-17.4,1.8s-3.5,13.1,1.8,17.4c4.5,3.7,11,3.7,15.6,0
			c5.3,4.3,13.1,3.5,17.4-1.8c4.3-5.3,3.5-13.1-1.8-17.4C709,56.8,706.3,55.8,703.4,55.8z M688,74.3c-3.4,0-6.2-2.8-6.2-6.2
			c0-3.4,2.8-6.2,6.2-6.2c3.4,0,6.2,2.8,6.2,6.2c0,0,0,0,0,0C694.2,71.6,691.4,74.3,688,74.3z M703.4,74.3c-1.5,0-2.9-0.5-4-1.5
			c1.2-3,1.2-6.4,0-9.4c1.1-1,2.5-1.5,4-1.5c3.4,0.1,6.1,3,5.9,6.4C709.2,71.6,706.6,74.2,703.4,74.3z"/>
		<path class="st13" d="M647.8,74.3h-40.1c-1.7,0.1-3,1.6-2.9,3.3c0.1,1.6,1.3,2.8,2.9,2.9h40.1c1.7,0.1,3.2-1.2,3.3-2.9
			s-1.2-3.2-2.9-3.3C648.1,74.3,648,74.3,647.8,74.3z"/>
		<path class="st13" d="M607.7,71.2h3.1c1.7,0.1,3.2-1.2,3.3-2.9s-1.2-3.2-2.9-3.3c-0.1,0-0.2,0-0.4,0h-3.1c-1.7,0.1-3,1.6-2.9,3.3
			C604.9,69.9,606.1,71.2,607.7,71.2z"/>
		<path class="st13" d="M620.1,71.2h3.1c1.7,0.1,3.2-1.2,3.3-2.9s-1.2-3.2-2.9-3.3c-0.1,0-0.2,0-0.4,0h-3.1c-1.7,0.1-3,1.6-2.9,3.3
			C617.2,69.9,618.5,71.2,620.1,71.2z"/>
		<path class="st13" d="M632.4,71.2h3.1c1.7,0.1,3.2-1.2,3.3-2.9s-1.2-3.2-2.9-3.3c-0.1,0-0.2,0-0.4,0h-3.1c-1.7,0.1-3,1.6-2.9,3.3
			C629.6,69.9,630.8,71.2,632.4,71.2z"/>
		<path class="st13" d="M647.8,65.1h-3.1c-1.7,0.1-3,1.6-2.9,3.3c0.1,1.6,1.3,2.8,2.9,2.9h3.1c1.7,0.1,3.2-1.2,3.3-2.9
			s-1.2-3.2-2.9-3.3C648.1,65.1,648,65.1,647.8,65.1z"/>
		<path class="st13" d="M727.8,104.9c-3.4-5.9-11-7.9-16.9-4.5l-35.3,20.4c-1.6-3.1-4.5-5.4-7.9-6.3l-41.9-9.6
			c-8-1.8-16.3-1.2-23.9,1.9l-17.9,7.2c-1.1,0.4-2.3,0.7-3.5,0.7h-0.7v-6.2c0-1.7-1.4-3.1-3.1-3.1H546c-1.7,0-3.1,1.4-3.1,3.1V167
			c0,1.7,1.4,3.1,3.1,3.1l0,0h30.9c1.7,0,3.1-1.4,3.1-3.1c0,0,0,0,0,0v-3.1h1.9c0.7,0,1.4,0,2.2,0.1l52.2,5.2
			c0.9,0.1,1.8,0.1,2.7,0.1c5.2,0,10.3-1.5,14.7-4.2l69.7-43.4C729.1,118.4,731.2,110.8,727.8,104.9L727.8,104.9z M573.8,163.9
			h-24.7v-52.5h24.7V163.9z M720.1,116.5l-69.8,43.4c-4.1,2.5-8.8,3.6-13.6,3.2l-52.1-5.2c-0.9-0.1-1.9-0.1-2.8-0.1H580v-37h0.6
			c2,0,3.9-0.4,5.7-1.1l17.9-7.2c6.4-2.6,13.5-3.1,20.2-1.6l41.8,9.6c2.4,0.6,4.2,2.7,4.5,5.1c0,0.1,0,0.2,0,0.3
			c0.3,3.4-2.2,6.4-5.7,6.7c-0.8,0.1-1.5,0-2.2-0.2h-0.1l-29.8-5.8c-1.7-0.3-3.3,0.9-3.5,2.6c-0.2,1.6,0.8,3.1,2.3,3.5l29.6,5.8
			c6.6,1.8,13.4-2.1,15.2-8.7c0,0,0-0.1,0-0.1l0,0c0.2-0.8,0.3-1.6,0.4-2.5l37-21.4c3-1.7,6.7-0.7,8.4,2.3c0.5,0.9,0.8,2,0.8,3
			C723.3,113.3,722,115.4,720.1,116.5L720.1,116.5z"/>
		<path class="st13" d="M561.4,117.6c-1.7,0-3.1,1.4-3.1,3.1c0,0,0,0,0,0v3.1c0,1.7,1.4,3.1,3.1,3.1c1.7,0,3.1-1.4,3.1-3.1v-3.1
			C564.5,118.9,563.1,117.6,561.4,117.6z"/>
	</g>
	<path class="st14" d="M72.9,86.8l-0.8,0.9c-14.6,16.5-24.5,41.3-24.5,61.8c0,16.7,6.5,28.8,19.4,36c10,5.6,23.5,8.1,42.6,8.1
		l10.6-59.4l-10.6-62.6L72.9,86.8z"/>
	<path class="st15" d="M145.3,85.7l-35.7-14v121.9c19.1,0,32.6-2.6,42.6-8.1c12.9-7.2,19.4-19.3,19.4-36
		C171.6,127.8,161,102.2,145.3,85.7z"/>
	<path class="st14" d="M91.9,0v15.1l-5.7,9.4l5.7,13.6l17.8,6.5l9.8-23.1L109.6,0H91.9z"/>
	<path class="st15" d="M109.6,0v44.6l31-4.6l16.6-21.9V0H109.6z"/>
	<path class="st16" d="M103.7,39.7c-6.6,0-11.9-5.3-11.9-11.9c0,0,0,0,0,0V14.9H46.5v56.5C60.3,85.2,79,93,98.5,93h11.1l9.5-26.5
		l-9.5-26.8H103.7z"/>
	<path class="st17" d="M147.1,39.7h-37.5V93h21.7c14.7,0,26.6-11.9,26.6-26.6v0V50.6C158,44.6,153.1,39.7,147.1,39.7
		C147.1,39.7,147.1,39.7,147.1,39.7z"/>
	<path class="st18" d="M102.7,152.3l-4.7-3.1l-6.2,9.4l4.7,3.1c2.4,1.7,5,2.8,7.9,3.4v6.1h5.2l2.6-9.1l-2.6-8
		C106.2,154.1,105.3,154,102.7,152.3L102.7,152.3z"/>
	<path class="st18" d="M106.7,130.3c-0.2-0.4-0.3-0.8-0.2-1.3c0.3-1.6,1.5-2.9,3.1-3.2l1.9-7.9l-1.9-8.7h-5.2v6.4
		c-9.2,3.6-12.8,17.1-4.7,23.5c3,2.2,6.4,3.9,9.9,5.1l1.9-5.5l-1.9-6.7C108.6,131.5,107.6,130.9,106.7,130.3L106.7,130.3z"/>
	<path class="st19" d="M110,125.7h2.3c1.7,0.3,3.4,0.8,4.9,1.6l5,2.7l5.4-9.9c-4-2.1-6.6-4-11.9-5.2v-5.6h-6.1v16.6L110,125.7
		L110,125.7z"/>
	<path class="st19" d="M116.2,134.7c-2.3-0.8-4.5-1.7-6.6-2.7v12.2c1,0.4,1.9,0.7,2.9,1.1c2.2,0.8,3.1,2.3,2.8,4.4
		c-0.4,2.6-2.6,4.5-5.3,4.5h-0.4v17h6.1v-6.8C129.3,159.6,130.8,139.6,116.2,134.7L116.2,134.7z"/>
	<path class="st20" d="M0,0h52.5v80.9H0V0z"/>
</g>
</svg>
