<svg xmlns="http://www.w3.org/2000/svg" viewBox="0 0 512 512" width="512" height="512">
	<style>
		tspan { white-space:pre }
		.shp0 { fill: #6b2da3 } 
		.shp1 { fill: #512b74 } 
		.shp2 { fill: #000000 } 
		.shp3 { fill: #d6d521 } 
		.shp4 { fill: #010001 } 
		.shp5 { fill: #88b337 } 
		.shp6 { fill: #79a125 } 
		.shp7 { fill: #e0d2c1 } 
	</style>
	<path id="Layer" class="shp0" d="M136.53 38.4L375.47 38.4L375.47 499.2L136.53 499.2L136.53 38.4Z" />
	<path id="Layer" class="shp1" d="M136.53 370.2L136.53 498.2L375.47 498.2L375.47 104.72L136.53 370.2Z" />
	<path id="Layer" class="shp0" d="M170.67 4.27L341.33 4.27L341.33 38.4L170.67 38.4L170.67 4.27Z" />
	<path id="Layer" class="shp0" d="M170.67 21.33L341.33 21.33L341.33 38.4L170.67 38.4L170.67 21.33Z" />
	<g id="Layer">
		<path id="Layer" class="shp2" d="M170.67 81.07L204.8 81.07L204.8 115.2L170.67 115.2L170.67 81.07Z" />
		<path id="Layer" class="shp2" d="M238.93 81.07L273.07 81.07L273.07 115.2L238.93 115.2L238.93 81.07Z" />
		<path id="Layer" class="shp2" d="M307.2 81.07L341.33 81.07L341.33 115.2L307.2 115.2L307.2 81.07Z" />
		<path id="Layer" class="shp2" d="M170.67 149.33L204.8 149.33L204.8 183.47L170.67 183.47L170.67 149.33Z" />
		<path id="Layer" class="shp2" d="M238.93 149.33L273.07 149.33L273.07 183.47L238.93 183.47L238.93 149.33Z" />
		<path id="Layer" class="shp3" d="M307.2 149.33L341.33 149.33L341.33 183.47L307.2 183.47L307.2 149.33Z" />
		<path id="Layer" class="shp2" d="M170.67 217.6L204.8 217.6L204.8 251.73L170.67 251.73L170.67 217.6Z" />
		<path id="Layer" class="shp2" d="M238.93 217.6L273.07 217.6L273.07 251.73L238.93 251.73L238.93 217.6Z" />
		<path id="Layer" class="shp2" d="M307.2 217.6L341.33 217.6L341.33 251.73L307.2 251.73L307.2 217.6Z" />
		<path id="Layer" class="shp3" d="M169.67 285.87L203.8 285.87L203.8 320L169.67 320L169.67 285.87Z" />
		<path id="Layer" class="shp2" d="M238.93 285.87L273.07 285.87L273.07 320L238.93 320L238.93 285.87Z" />
		<path id="Layer" class="shp4" d="M307.2 285.87L341.33 285.87L341.33 320L307.2 320L307.2 285.87Z" />
		<path id="Layer" class="shp2" d="M170.67 356.13L204.8 356.13L204.8 390.27L170.67 390.27L170.67 356.13Z" />
		<path id="Layer" class="shp2" d="M239.93 354.13L274.07 354.13L274.07 388.27L239.93 388.27L239.93 354.13Z" />
		<path id="Layer" class="shp2" d="M307.2 354.13L341.33 354.13L341.33 388.27L307.2 388.27L307.2 354.13Z" />
		<path id="Layer" class="shp2" d="M204.8 430.93L307.2 430.93L307.2 499.2L204.8 499.2L204.8 430.93Z" />
	</g>
	<path id="Layer" class="shp0" d="M247.47 430.93L264.53 430.93L264.53 499.2L247.47 499.2L247.47 430.93Z" />
	<path id="Layer" class="shp5" d="M83.63 364.79C85.68 358.55 85.91 351.86 84.28 345.51C81.19 333.35 71.62 323.89 59.42 320.96C41.08 316.45 22.56 327.66 18.06 346C17.4 348.66 17.07 351.39 17.07 354.13C17.07 357.15 17.47 360.16 18.26 363.07C22.08 375.76 20.64 389.45 14.25 401.07C2.47 421.48 9.46 447.56 29.87 459.35C50.27 471.14 76.37 464.14 88.15 443.73C95.51 430.98 95.78 415.32 88.85 402.32C82.04 391.06 80.14 377.49 83.63 364.79Z" />
	<path id="Layer" class="shp6" d="M42.67 354.13L59.73 354.13L59.73 507.73L42.67 507.73L42.67 354.13Z" />
	<path id="Layer" class="shp5" d="M493.23 364.79C495.28 358.55 495.5 351.86 493.88 345.51C490.79 333.35 481.22 323.89 469.02 320.96C450.68 316.45 432.16 327.66 427.66 346C427 348.66 426.67 351.39 426.67 354.13C426.67 357.15 427.07 360.16 427.86 363.07C431.69 375.77 430.25 389.48 423.85 401.1C412.07 421.51 419.06 447.6 439.47 459.38C459.87 471.17 485.96 464.17 497.75 443.77C505.11 431.01 505.38 415.35 498.45 402.36C491.63 391.08 489.74 377.5 493.23 364.79Z" />
	<path id="Layer" class="shp6" d="M452.27 354.13L469.33 354.13L469.33 507.73L452.27 507.73L452.27 354.13Z" />
	<path id="Layer" class="shp7" d="M0 490.67L512 490.67L512 507.73L0 507.73L0 490.67Z" />
	<g id="Layer">
	</g>
	<g id="Layer">
	</g>
	<g id="Layer">
	</g>
	<g id="Layer">
	</g>
	<g id="Layer">
	</g>
	<g id="Layer">
	</g>
	<g id="Layer">
	</g>
	<g id="Layer">
	</g>
	<g id="Layer">
	</g>
	<g id="Layer">
	</g>
	<g id="Layer">
	</g>
	<g id="Layer">
	</g>
	<g id="Layer">
	</g>
	<g id="Layer">
	</g>
	<g id="Layer">
	</g>
</svg>