<?xml version="1.0" encoding="utf-8"?>
<!-- Generator: Adobe Illustrator 25.2.1, SVG Export Plug-In . SVG Version: 6.00 Build 0)  -->
<svg version="1.1" xmlns="http://www.w3.org/2000/svg" xmlns:xlink="http://www.w3.org/1999/xlink" x="0px" y="0px"
	 viewBox="0 0 1024 1024" style="enable-background:new 0 0 1024 1024;" xml:space="preserve">
<style type="text/css">
	.st0{fill:#E9EDF1;}
	.st1{fill:#C8D2DC;}
	.st2{fill:#FF0606;}
	.st3{fill:#BCD1E1;}
	.st4{fill:#FF1B10;}
	.st5{fill:#FF451B;}
	.st6{fill:#FF6523;}
	.st7{fill:#FF852B;}
	.st8{fill:#3C4047;}
	.st9{fill:#50545B;}
	.st10{fill:#686C83;}
	.st11{fill:#FF5D5D;}
	.st12{fill:#FFFFFF;}
</style>
<g id="Fondo_xA0_Imagen_3_">
</g>
<g id="Fondo_xA0_Imagen_1_">
</g>
<g id="Rectángulo_1_xA0_Imagen_1_">
</g>
<g id="Capa_5">
</g>
<g id="Layer_xA0_Imagen_1_">
	<g>
		<g>
			<g>
				<g id="XMLID_1_">
					<g>
						<path d="M836.42,729.41c0,25.68-12.63,44.69-36.51,54.97c-17.41,7.49-38.1,9.32-54.35,9.69
							c-3.92,10.98-14.57,18.87-27.07,18.87h-416.9c-12.5,0-23.16-7.89-27.08-18.87c-16.25-0.37-36.94-2.2-54.34-9.69
							c-23.89-10.28-36.51-29.29-36.51-54.97c0-43.55,19.07-73.38,50.67-122.8c11.31-17.68,24.09-37.67,38.57-62.12v-47.52
							c0-15.52,12.87-28.15,28.69-28.15h27.2c2.64-12.93,5.15-25.8,7.58-38.32c11.98-61.73,23.3-120.03,47.08-162.76
							c27.09-48.68,68.49-72.34,126.59-72.34c29.66,0,54.35,5.91,75.46,18.08c4.55,2.63,6.08,8.38,3.4,12.85
							c-0.07,0.12-0.14,0.24-0.22,0.35c-20.08-14.01-45.58-21.9-78.64-21.9c-123.68,0-141.43,110.33-166.43,238.54
							c-4.77,19.73-6.83,33.76-6.98,34.82c0,0.01,0,0.01,0,0.02c-0.01,0.03-0.01,0.04-0.01,0.04h-33.79h-1.24
							c-10.52,0-19.13,8.45-19.13,18.77v50.05c-56.53,95.81-89.24,126.66-89.24,182.39c0,49.83,52.35,55.37,89.24,55.37
							c0,10.32,8.61,18.77,19.13,18.77h416.9c10.51,0,19.12-8.45,19.12-18.77c36.9,0,89.24-5.54,89.24-55.37
							c0-45.61-21.91-74.56-60.85-136.09c4.48-2.74,10.36-1.39,13.16,2.99c2.26,3.54,4.45,6.97,6.58,10.3
							C817.34,656.03,836.42,685.86,836.42,729.41z"/>
						<path d="M766,593.32c38.94,61.53,60.85,90.48,60.85,136.09c0-55.73-89.24-76.65-89.24-76.65V547.02
							c3.27,5.54,6.45,10.85,9.56,15.97v82.63c11.79,3.48,35.41,11.69,55.4,26.18c-7.98-16.03-19.08-33.4-33.03-55.21
							c-2.13-3.34-4.33-6.78-6.59-10.32c-2.8-4.4-1.44-10.19,3.03-12.94C765.99,593.33,765.99,593.32,766,593.32z"/>
						<path d="M817.29,729.4c0,29.91-21.73,44.23-70.13,45.84c-0.03-4.73-1.87-9.04-4.86-12.32c3.08-4.49,4.87-9.88,4.87-15.68
							v-81.89C769.84,672.83,817.29,692.87,817.29,729.4z"/>
						<path d="M826.85,729.41c0,49.83-52.34,55.37-89.24,55.37v-9.4c0-5.15-4.3-9.37-9.55-9.37l-5.37-0.46
							c8.51-1.89,14.92-9.41,14.92-18.31v-2.04v-92.44C737.61,652.76,826.85,673.68,826.85,729.41z M747.16,775.24
							c48.4-1.61,70.13-15.93,70.13-45.84c0-36.53-47.45-56.57-70.12-64.05v81.89c0,5.8-1.79,11.19-4.87,15.68
							C745.29,766.2,747.13,770.51,747.16,775.24z"/>
						<path d="M769.54,616.59c13.95,21.81,25.05,39.18,33.03,55.21c-19.99-14.49-43.61-22.7-55.4-26.18v-82.63
							c6.65,10.97,12.93,21.02,18.83,30.33c-0.01,0-0.01,0.01-0.02,0.01c-4.47,2.75-5.83,8.54-3.03,12.94
							C765.21,609.81,767.41,613.25,769.54,616.59z"/>
						<path d="M747.17,496.97v66.02c-3.11-5.12-6.29-10.43-9.56-15.97v-50.05c0-10.32-8.61-18.77-19.12-18.77h-35.04
							c0-0.02-0.01-0.04-0.01-0.06c-0.15-1.06-2.21-15.09-6.98-34.82c-17.04-87.38-30.7-166.45-76.83-207.94
							c0.09-0.09,0.18-0.18,0.27-0.26c3.87-3.53,9.92-3.32,13.52,0.48c40.79,43.01,54.46,113.4,70.28,194.9
							c2.43,12.52,4.94,25.39,7.58,38.32h27.2C734.3,468.82,747.17,481.45,747.17,496.97z"/>
						<path d="M737.61,775.38v9.4l-7-0.37c-0.86-0.08-1.71-0.19-2.56-0.32v-8.71h-9.1c-0.15,0.01-0.31,0.02-0.46,0.02
							c-0.08,0-0.16-0.01-0.24-0.02h-12.52c-3.52-2.62-6.55-5.75-9.05-9.37h21.81c1.44,0,2.85-0.16,4.2-0.46l5.37,0.46
							C733.31,766.01,737.61,770.23,737.61,775.38z"/>
						<path d="M737.61,745.2v2.04c0,8.9-6.41,16.42-14.92,18.31l-27.82-2.4c-1.18-2.04-2.21-4.22-3.08-6.52h26.7
							c5.27,0,9.56-4.21,9.56-9.39v-2.04H737.61z"/>
						<path d="M737.61,652.76v92.44l-9.56-5.87v-81.52C733.68,654.23,737.61,652.76,737.61,652.76z"/>
						<path d="M737.61,547.02v105.74c0,0-3.93,1.47-9.56,5.05v-99.87C733.91,551.08,737.61,547.02,737.61,547.02z"/>
						<path d="M737.61,496.97v50.05c0,0-3.7,4.06-9.56,10.92v-60.97c0-5.17-4.29-9.38-9.56-9.38h-67.4
							c21.02-5.06,32.36-9.39,32.36-9.39h35.04C729,478.2,737.61,486.65,737.61,496.97z"/>
						<polygon points="737.61,745.2 728.05,745.2 728.05,739.33 						"/>
						<path d="M737.61,784.78h-9.56v-0.51l2.01,0.11C732.49,784.65,735.01,784.78,737.61,784.78z"/>
						<path d="M728.05,784.78h9.56c0,10.32-8.61,18.77-19.12,18.77h-416.9c-10.52,0-19.13-8.45-19.13-18.77h9.56
							c0,5.18,4.29,9.39,9.57,9.39h416.9C723.76,794.17,728.05,789.96,728.05,784.78z"/>
						<path d="M730.61,784.41l7,0.37C735.25,784.78,732.91,784.66,730.61,784.41z"/>
						<path d="M730.61,784.41c2.3,0.25,4.64,0.37,7,0.37c-2.6,0-5.12-0.13-7.55-0.4L730.61,784.41z"/>
						<path d="M730.61,784.41l-0.55-0.03c-0.68-0.07-1.35-0.16-2.01-0.25v-0.04C728.9,784.22,729.75,784.33,730.61,784.41z"/>
						<path d="M730.06,784.38l-2.01-0.11v-0.14C728.71,784.22,729.38,784.31,730.06,784.38z"/>
						<path class="st0" d="M728.05,784.27v0.51H292.02v-0.54l155.45-8.84h43.34c2.7,0,5.13-1.09,6.87-2.85l4.85-0.28l20.59,1.1
							c1.63,1.27,3.69,2.03,5.94,2.03h32.22L728.05,784.27z"/>
						<path class="st0" d="M728.05,784.13v0.14l-166.77-8.87l141.56-0.02c6.21,3.5,12.84,6.14,19.78,7.71
							C724.37,783.52,726.18,783.86,728.05,784.13z"/>
						<path class="st0" d="M728.05,784.09v0.04c-1.87-0.27-3.68-0.61-5.43-1.04C724.41,783.5,726.22,783.84,728.05,784.09z"/>
						<path class="st0" d="M728.05,775.38v8.71c-1.83-0.25-3.64-0.59-5.43-1c-6.44-1.55-12.11-4.15-16.89-7.71h12.52
							c0.08,0.01,0.16,0.02,0.24,0.02c0.15,0,0.31-0.01,0.46-0.02H728.05z"/>
						<path class="st1" d="M728.05,745.2v2.04c0,5.18-4.29,9.39-9.56,9.39h-26.7c-1.32-3.52-2.28-7.34-2.83-11.43H728.05z"/>
						<path class="st0" d="M728.05,739.33v5.87h-39.09c-0.38-2.78-0.57-5.7-0.57-8.73c0-7.39,0.63-14.18,1.76-20.41L728.05,739.33z"
							/>
						<path class="st0" d="M728.05,657.81v81.52l-37.9-23.27C696.11,682.81,715.99,665.48,728.05,657.81z"/>
						<path class="st0" d="M728.05,557.94v99.87c-12.06,7.67-31.94,25-37.9,58.25l-37.17-22.83c-0.13-2-0.2-4-0.2-6
							C652.78,649.97,705.87,583.91,728.05,557.94z"/>
						<path class="st0" d="M728.05,496.97v60.97c-22.18,25.97-75.27,92.03-75.27,129.29c0,2,0.07,4,0.2,6L543.67,626.1l2.21-6.75
							c0.94-2.86,0.43-5.98-1.37-8.4c-1.8-2.43-4.67-3.86-7.73-3.86h-24.07l-21.05-12.93l29.81-91.03
							c57.45-0.94,101.93-8.87,129.62-15.54h67.4C723.76,487.59,728.05,491.8,728.05,496.97z"/>
						<path class="st1" d="M292.02,784.78h436.03c0,5.18-4.29,9.39-9.56,9.39h-416.9C296.31,794.17,292.02,789.96,292.02,784.78z"/>
						<path d="M694.87,763.15l27.82,2.4c-1.35,0.3-2.76,0.46-4.2,0.46h-21.81C696.04,765.09,695.44,764.14,694.87,763.15z"/>
						<path class="st0" d="M705.73,775.38c4.78,3.56,10.45,6.16,16.89,7.71c-6.94-1.57-13.57-4.21-19.78-7.71H705.73z"/>
						<path d="M705.73,775.38h-2.89c-4.72-2.65-9.2-5.8-13.4-9.37h7.24C699.18,769.63,702.21,772.76,705.73,775.38z"/>
						<path d="M702.84,775.38l-141.56,0.02l-38.16-2.03c-2.21-1.73-3.62-4.38-3.62-7.36h169.94
							C693.64,769.58,698.12,772.73,702.84,775.38z"/>
						<path d="M696.68,766.01h-7.24c-1.39-1.18-2.75-2.4-4.07-3.68l9.5,0.82C695.44,764.14,696.04,765.09,696.68,766.01z"/>
						<path d="M694.87,763.15l-9.5-0.82c-1.91-1.81-3.75-3.71-5.51-5.7h11.93C692.66,758.93,693.69,761.11,694.87,763.15z"/>
						<path class="st1" d="M691.79,756.63h-11.93c-3.18-3.57-6.14-7.4-8.83-11.43h17.93C689.51,749.29,690.47,753.11,691.79,756.63z
							"/>
						<path class="st0" d="M652.98,693.23l37.17,22.83c-1.13,6.23-1.76,13.02-1.76,20.41c0,3.03,0.19,5.95,0.57,8.73h-17.93
							C660.69,729.76,654.17,711.42,652.98,693.23z"/>
						<path d="M689.44,766.01H519.5c0-5.18,4.28-9.38,9.56-9.38h90.05l66.26,5.7C686.69,763.61,688.05,764.83,689.44,766.01z"/>
						<path d="M685.37,762.33l-66.26-5.7h60.75C681.62,758.62,683.46,760.52,685.37,762.33z"/>
						<path d="M683.44,478.14c0,0.02,0.01,0.04,0.01,0.06h-76.46l7.54-47.23c13.22-9.42,20.27-25.4,20.27-46.39
							c0-3.05-0.73-5.85-2.24-8.37C670.27,426.85,682.94,476.18,683.44,478.14z M622.49,468.82h48.12
							c-4.48-13.24-13.54-36.4-29.04-62.12c-2.46,9.03-6.52,16.93-12.09,23.38L622.49,468.82z"/>
						<path d="M606.99,478.2h76.46c0,0-11.34,4.33-32.36,9.39h-93.25c-5.28,0-9.56-4.21-9.56-9.39H606.99z"/>
						<path class="st1" d="M679.86,756.63h-60.75l-109.07-9.39v-2.04h160.99C673.72,749.23,676.68,753.06,679.86,756.63z"/>
						<path d="M683.44,478.14c-2.44-11.71-4.74-23.34-6.98-34.82C681.23,463.05,683.29,477.08,683.44,478.14z"/>
						<path d="M676.46,443.32c2.24,11.48,4.54,23.11,6.98,34.82c-0.5-1.96-13.17-51.29-50.88-101.93c-0.01-0.01-0.02-0.03-0.03-0.04
							c-0.63-1.07-1.41-2.08-2.33-3.04c-0.48-0.62-0.97-1.23-1.46-1.84c0.17-4.96-0.02-10.03-0.69-15.11
							c4.31,4.5,8.38,9.32,12.2,14.45c6.41,8.6,12.11,17.16,17.17,25.45c-1.64-8.02-3.31-15.89-5.04-23.57
							C663.84,396.87,671.57,423.09,676.46,443.32z"/>
						<path d="M676.46,443.32c-4.89-20.23-12.62-46.45-24.08-70.81c-11.69-52-26.01-95.71-52.96-124.12
							c-3.51-3.71-3.39-9.46,0.21-13.01C645.76,276.87,659.42,355.94,676.46,443.32z"/>
						<path class="st0" d="M671.03,745.2H510.04h-161c11.48-17.14,18.26-37.86,18.26-57.97c0-32.09-39.37-85.53-64.47-116.33v-83.31
							h15.29l156.82,96.3l-9.73,29.71c-0.94,2.86-0.43,5.98,1.37,8.4c1.8,2.43,4.67,3.86,7.73,3.86h49.35l-32.28,98.59
							c-1.62,4.93,1.15,10.22,6.18,11.8c5.02,1.59,10.41-1.13,12.03-6.06l34.08-104.09l109.31,67.13
							C654.17,711.42,660.69,729.76,671.03,745.2z"/>
						<path d="M670.61,468.82h-48.12l6.99-38.74c5.57-6.45,9.63-14.35,12.09-23.38C657.07,432.42,666.13,455.58,670.61,468.82z"/>
						<path d="M652.38,372.51c1.73,7.68,3.4,15.55,5.04,23.57c-5.06-8.29-10.76-16.85-17.17-25.45c-3.82-5.13-7.89-9.95-12.2-14.45
							c-2.29-17.42-10.28-34.91-29.25-47.83l1.01-1.47c13.36,9.2,24.11,20.19,32.72,31.75
							C640.13,348.83,646.71,360.44,652.38,372.51z"/>
						<path class="st0" d="M557.84,487.59h93.25c-27.69,6.67-72.17,14.6-129.62,15.54l7.22-22.06c0.31-0.94,0.46-1.9,0.46-2.87
							h19.13C548.28,483.38,552.56,487.59,557.84,487.59z"/>
						<path d="M599.42,248.39c26.95,28.41,41.27,72.12,52.96,124.12c-5.67-12.07-12.25-23.68-19.85-33.88
							c-8.61-11.56-19.36-22.55-32.72-31.75c-22.09-15.24-51.32-25.59-89.77-25.59s-67.68,10.35-89.78,25.59
							c-13.36,9.2-24.11,20.19-32.72,31.75c-7.6,10.2-14.18,21.81-19.85,33.88c20.71-92.19,49.71-158.34,142.35-158.34
							c26.16,0,47.68,5.07,65.77,15.5c4.44,2.55,10.11,1.21,12.87-2.99c3.84,2.67,7.49,5.57,10.95,8.7
							C596.03,238.93,595.91,244.68,599.42,248.39z"/>
						<path d="M632.56,376.21c1.51,2.52,2.24,5.32,2.24,8.37c0,20.99-7.05,36.97-20.27,46.39l1.28-7.98c0,0,11.87-23.71,12.92-51.25
							c0.53,0.45,1.02,0.91,1.47,1.39c0.8,1.01,1.57,2.02,2.33,3.04C632.54,376.18,632.55,376.2,632.56,376.21z"/>
						<path d="M630.2,373.13c0.92,0.96,1.7,1.97,2.33,3.04C631.77,375.15,631,374.14,630.2,373.13z"/>
						<path d="M628.74,371.29c0.49,0.61,0.98,1.22,1.46,1.84c-0.45-0.48-0.94-0.94-1.47-1.39
							C628.73,371.59,628.74,371.44,628.74,371.29z"/>
						<path d="M628.05,356.18c0.67,5.08,0.86,10.15,0.69,15.11c-23.17-28.57-60.31-52.46-118.7-52.46
							c-58.4,0-95.53,23.89-118.71,52.46c-0.17-4.96,0.02-10.03,0.69-15.12c29.33-30.65,69.74-46.73,118.02-46.73
							S598.73,325.52,628.05,356.18z"/>
						<path d="M628.74,371.29c0,0.15-0.01,0.3-0.01,0.45c-7.54-6.46-22.27-10.14-45.08-10.14c-35.17,0-57.15,12.32-57.15,26.55
							c0,35.02,18.34,52.51,53.52,52.51c14.08,0,25.68-3.38,34.51-9.69l-7.54,47.23h-58.71c0-5.18,4.28-9.38,9.56-9.38h45.23
							l4.23-23.44c-8.07,3.08-17.24,4.67-27.28,4.67c-39.35,0-61.59-20.58-63-58.05c-3.73-0.86-10.24-0.86-13.96,0
							c-1.41,37.47-23.66,58.05-63,58.05c-10.05,0-19.21-1.59-27.28-4.67l4.23,23.44h102.58c3.05,0,5.93,1.43,7.73,3.85
							c1.21,1.63,1.83,3.57,1.83,5.53H413.09l-7.55-47.23c8.83,6.31,20.43,9.69,34.52,9.69c35.17,0,53.51-17.49,53.51-52.51
							c0-14.23-21.98-26.55-57.15-26.55c-22.81,0-37.54,3.68-45.08,10.14c0-0.15-0.01-0.3-0.01-0.45
							c23.18-28.57,60.31-52.46,118.71-52.46C568.43,318.83,605.57,342.72,628.74,371.29z M583.65,352.22
							c4.01,0,7.79,0.11,11.37,0.32c-23.08-16.16-51.51-24.33-84.98-24.32c-33.48,0-61.91,8.16-84.99,24.32
							c3.59-0.21,7.36-0.32,11.37-0.32c29.66,0,52.55,8.42,61.99,21.65c3.16-0.81,7-1.28,11.63-1.28c4.63,0,8.46,0.47,11.62,1.28
							C531.11,360.64,554,352.22,583.65,352.22z"/>
						<path class="st2" d="M623.66,380.2c1.04,1.33,1.58,2.8,1.58,4.38c0,21.3-7.84,46.69-45.22,46.69
							c-29.99,0-43.95-13.7-43.95-43.12c0-7.02,16.94-17.16,47.58-17.16c21.14,0,35.36,3.35,39.97,9.16
							C623.63,380.16,623.65,380.18,623.66,380.2z"/>
						<path d="M583.65,361.6c22.81,0,37.54,3.68,45.08,10.14c-1.05,27.54-12.92,51.25-12.92,51.25l-1.28,7.98
							c-8.83,6.31-20.43,9.69-34.51,9.69c-35.18,0-53.52-17.49-53.52-52.51C526.5,373.92,548.48,361.6,583.65,361.6z M625.24,384.58
							c0-1.58-0.54-3.05-1.58-4.38c-0.01-0.02-0.03-0.04-0.04-0.05c-4.61-5.81-18.83-9.16-39.97-9.16
							c-30.64,0-47.58,10.14-47.58,17.16c0,29.42,13.96,43.12,43.95,43.12C617.4,431.27,625.24,405.88,625.24,384.58z"/>
						<path class="st1" d="M619.11,756.63h-90.05c-5.28,0-9.56,4.2-9.56,9.38h-19.12c0-5.18-4.28-9.38-9.57-9.38h-89.84l109.07-9.39
							L619.11,756.63z"/>
						<path d="M598.8,308.35c18.97,12.92,26.96,30.41,29.25,47.83c-29.32-30.66-69.73-46.74-118.01-46.74s-88.69,16.08-118.02,46.73
							c2.29-17.42,10.28-34.9,29.25-47.82c18.09-12.31,46.15-20.47,88.77-20.47C552.65,287.88,580.72,296.04,598.8,308.35z"/>
						<path class="st3" d="M607.3,445.38l-4.23,23.44h-45.23c-5.28,0-9.56,4.2-9.56,9.38h-19.13c0-1.96-0.62-3.9-1.83-5.53
							c-1.8-2.42-4.68-3.85-7.73-3.85H417.01l-4.23-23.44c8.07,3.08,17.23,4.67,27.28,4.67c39.34,0,61.59-20.58,63-58.05
							c3.72-0.86,10.23-0.86,13.96,0c1.41,37.47,23.65,58.05,63,58.05C590.06,450.05,599.23,448.46,607.3,445.38z"/>
						<path d="M599.81,306.88l-1.01,1.47c-18.08-12.31-46.15-20.47-88.76-20.47c-42.62,0-70.68,8.16-88.77,20.47l-1.01-1.47
							c22.1-15.24,51.33-25.59,89.78-25.59S577.72,291.64,599.81,306.88z"/>
						<path class="st3" d="M595.02,352.54c-3.58-0.21-7.36-0.32-11.37-0.32c-29.65,0-52.54,8.42-61.99,21.65
							c-3.16-0.81-6.99-1.28-11.62-1.28c-4.63,0-8.47,0.47-11.63,1.28c-9.44-13.23-32.33-21.65-61.99-21.65
							c-4.01,0-7.78,0.11-11.37,0.32c23.08-16.16,51.51-24.32,84.99-24.32C543.51,328.21,571.94,336.38,595.02,352.54z"/>
						<path d="M588.68,226.68c-2.76,4.2-8.43,5.54-12.87,2.99c-18.09-10.43-39.61-15.5-65.77-15.5
							c-92.64,0-121.64,66.15-142.35,158.34c-11.45,24.36-19.19,50.58-24.08,70.81c25-128.21,42.75-238.54,166.43-238.54
							C543.1,204.78,568.6,212.67,588.68,226.68z"/>
						<path d="M561.28,775.4h-32.22c-2.25,0-4.31-0.76-5.94-2.03L561.28,775.4z"/>
						<path d="M544.51,610.95c1.8,2.42,2.31,5.54,1.37,8.4l-2.21,6.75l-30.96-19.01h24.07
							C539.84,607.09,542.71,608.52,544.51,610.95z"/>
						<path d="M543.67,626.1l-34.08,104.09c-1.62,4.93-7.01,7.65-12.03,6.06c-5.03-1.58-7.8-6.87-6.18-11.8l32.28-98.59h-49.35
							c-3.06,0-5.93-1.43-7.73-3.86c-1.8-2.42-2.31-5.54-1.37-8.4l9.73-29.71l16.72,10.27l-4.23,12.93h25.28L543.67,626.1z"/>
						<path d="M413.09,478.2h116.06c0,0.97-0.15,1.93-0.46,2.87l-7.22,22.06c-3.75,0.07-7.56,0.1-11.43,0.1
							c-2.92,0-5.81-0.02-8.67-0.06l5.1-15.58H368.98c-21.02-5.06-32.36-9.39-32.36-9.39H413.09z"/>
						<path class="st0" d="M523.12,773.37l-20.59-1.1l-4.85,0.28c1.67-1.69,2.7-4,2.7-6.54h19.12
							C519.5,768.99,520.91,771.64,523.12,773.37z"/>
						<path d="M521.47,503.13l-29.81,91.03l-16.72-10.27l26.43-80.72c2.86,0.04,5.75,0.06,8.67,0.06
							C513.91,503.23,517.72,503.2,521.47,503.13z"/>
						<polygon class="st0" points="512.71,607.09 487.43,607.09 491.66,594.16 						"/>
						<path class="st1" d="M510.04,745.2v2.04l-109.07,9.39h-60.76c3.19-3.57,6.14-7.4,8.83-11.43H510.04z"/>
						<path class="st0" d="M506.47,487.59l-5.1,15.58c-58.79-0.73-104.26-8.81-132.39-15.58H506.47z"/>
						<path class="st0" d="M501.37,503.17l-26.43,80.72l-156.82-96.3h50.86C397.11,494.36,442.58,502.44,501.37,503.17z"/>
						<path d="M500.38,766.01H330.63c1.39-1.18,2.75-2.4,4.07-3.68l66.27-5.7h89.84C496.1,756.63,500.38,760.83,500.38,766.01z"/>
						<path d="M330.63,766.01h169.75c0,2.54-1.03,4.85-2.7,6.54l-50.21,2.85H317.2C321.93,772.74,326.42,769.58,330.63,766.01z"/>
						<path d="M497.68,772.55c-1.74,1.76-4.17,2.85-6.87,2.85h-43.34L497.68,772.55z"/>
						<path d="M493.57,388.15c0,35.02-18.34,52.51-53.51,52.51c-14.09,0-25.69-3.38-34.52-9.69l-1.28-7.98
							c0,0-11.87-23.71-12.92-51.25c7.54-6.46,22.27-10.14,45.08-10.14C471.59,361.6,493.57,373.92,493.57,388.15z M440.06,431.28
							c29.98,0,43.95-13.71,43.95-43.13c0-7.02-16.95-17.16-47.59-17.16c-21.14,0-35.36,3.35-39.97,9.16
							c-0.01,0.01-0.02,0.03-0.03,0.04c-1.05,1.34-1.59,2.8-1.59,4.39C394.83,405.88,402.68,431.28,440.06,431.28z"/>
						<path class="st2" d="M484.01,388.15c0,29.42-13.97,43.13-43.95,43.13c-37.38,0-45.23-25.4-45.23-46.7
							c0-1.59,0.54-3.05,1.59-4.39c0.01-0.01,0.02-0.03,0.03-0.04c4.61-5.81,18.83-9.16,39.97-9.16
							C467.06,370.99,484.01,381.13,484.01,388.15z"/>
						<path class="st0" d="M447.47,775.4l-155.45,8.84v-0.11c1.88-0.27,3.7-0.62,5.46-1.04c6.92-1.58,13.53-4.2,19.72-7.69H447.47z"
							/>
						<path d="M420.26,306.88l1.01,1.47c-18.97,12.92-26.96,30.4-29.25,47.82c-4.31,4.51-8.38,9.33-12.2,14.46
							c-6.41,8.6-12.11,17.16-17.17,25.45c1.64-8.02,3.31-15.89,5.04-23.57c5.67-12.07,12.25-23.68,19.85-33.88
							C396.15,327.07,406.9,316.08,420.26,306.88z"/>
						<path d="M405.54,430.97l7.55,47.23h-76.47c0,0,0-0.01,0.01-0.04c0-0.01,0-0.01,0-0.02c0.5-1.96,13.18-51.29,50.88-101.93
							c-1.51,2.52-2.24,5.32-2.24,8.37C385.27,405.57,392.32,421.55,405.54,430.97z M397.58,468.82l-6.99-38.74
							c-5.57-6.45-9.62-14.35-12.08-23.38c-15.51,25.71-24.57,48.88-29.04,62.12H397.58z"/>
						<path d="M404.26,422.99l1.28,7.98c-13.22-9.42-20.27-25.4-20.27-46.39c0-3.05,0.73-5.85,2.24-8.37
							c0.01-0.01,0.02-0.03,0.03-0.04c0.76-1.02,1.53-2.03,2.33-3.04c0.45-0.48,0.94-0.94,1.47-1.39
							C392.39,399.28,404.26,422.99,404.26,422.99z"/>
						<path d="M400.97,756.63l-66.27,5.7c1.91-1.81,3.75-3.71,5.51-5.7H400.97z"/>
						<path d="M390.59,430.08l6.99,38.74h-48.11c4.47-13.24,13.53-36.41,29.04-62.12C380.97,415.73,385.02,423.63,390.59,430.08z"/>
						<path d="M391.33,371.29c0,0.15,0.01,0.3,0.01,0.45c-0.53,0.45-1.02,0.91-1.47,1.39C390.35,372.51,390.84,371.9,391.33,371.29z
							"/>
						<path d="M392.02,356.17c-0.67,5.09-0.86,10.16-0.69,15.12c-0.49,0.61-0.98,1.22-1.46,1.84c-0.92,0.96-1.7,1.97-2.33,3.04
							c-0.01,0.01-0.02,0.03-0.03,0.04c-37.7,50.64-50.38,99.97-50.88,101.93c2.44-11.71,4.74-23.34,6.98-34.82
							c4.89-20.23,12.63-46.45,24.08-70.81c-1.73,7.68-3.4,15.55-5.04,23.57c5.06-8.29,10.76-16.85,17.17-25.45
							C383.64,365.5,387.71,360.68,392.02,356.17z"/>
						<path d="M389.87,373.13c-0.8,1.01-1.57,2.02-2.33,3.04C388.17,375.1,388.95,374.09,389.87,373.13z"/>
						<path d="M368.98,487.59h-50.86l-15.29-9.39h33.79C336.62,478.2,347.96,482.53,368.98,487.59z"/>
						<path class="st0" d="M367.3,687.23c0,20.11-6.78,40.83-18.26,57.97h-17.93c0.38-2.78,0.57-5.7,0.57-8.73
							c0-36.4-15.31-58.23-28.85-70.42V570.9C327.93,601.7,367.3,655.14,367.3,687.23z"/>
						<path class="st1" d="M331.11,745.2h17.93c-2.69,4.03-5.64,7.86-8.83,11.43h-11.93C329.6,753.11,330.56,749.29,331.11,745.2z"
							/>
						<path d="M328.28,756.63h11.93c-1.76,1.99-3.6,3.89-5.51,5.7l-9.5,0.82C326.38,761.11,327.41,758.93,328.28,756.63z"/>
						<path d="M343.61,443.32c-2.24,11.48-4.54,23.11-6.98,34.82C336.78,477.08,338.84,463.05,343.61,443.32z"/>
						<path d="M325.2,763.15l9.5-0.82c-1.32,1.28-2.68,2.5-4.07,3.68h-7.24C324.03,765.09,324.63,764.14,325.2,763.15z"/>
						<path class="st0" d="M331.68,736.47c0,3.03-0.19,5.95-0.57,8.73h-9.15c-10.52,0-19.13-8.45-19.13-18.77v-60.38
							C316.37,678.24,331.68,700.07,331.68,736.47z"/>
						<path class="st1" d="M321.96,745.2h9.15c-0.55,4.09-1.51,7.91-2.83,11.43h-26.69c-5.28,0-9.57-4.21-9.57-9.39v-89.43
							c3.19,2.03,6.92,4.73,10.81,8.24v60.38C302.83,736.75,311.44,745.2,321.96,745.2z"/>
						<path d="M323.39,766.01h7.24c-4.21,3.57-8.7,6.73-13.43,9.39h-2.88C317.85,772.78,320.89,769.63,323.39,766.01z"/>
						<path d="M301.59,756.63h26.69c-0.87,2.3-1.9,4.48-3.08,6.52l-27.82,2.4c-8.51-1.9-14.92-9.41-14.92-18.31v-94.48
							c0,0,3.92,1.47,9.56,5.05v89.43C292.02,752.42,296.31,756.63,301.59,756.63z"/>
						<path d="M297.38,765.55l27.82-2.4c-0.57,0.99-1.17,1.94-1.81,2.86h-21.8C300.14,766.01,298.73,765.85,297.38,765.55z"/>
						<path d="M301.59,766.01h21.8c-2.5,3.62-5.54,6.77-9.07,9.39h-22.31l0.01,8.69c-0.7,0.11-1.41,0.2-2.12,0.27l-7.44,0.42v-9.4
							c0-5.15,4.3-9.37,9.55-9.37l5.37-0.46C298.73,765.85,300.14,766.01,301.59,766.01z"/>
						<polygon points="318.12,487.59 302.83,487.59 302.83,478.2 						"/>
						<path class="st0" d="M314.32,775.4h2.88c-6.19,3.49-12.8,6.11-19.72,7.69C303.91,781.54,309.56,778.94,314.32,775.4z"/>
						<path class="st0" d="M292.01,775.4h22.31c-4.76,3.54-10.41,6.14-16.84,7.69c-1.8,0.41-3.62,0.75-5.46,1L292.01,775.4z"/>
						<path class="st1" d="M302.83,570.9v95.15c-3.89-3.51-7.62-6.21-10.81-8.24v-99.87C295.1,561.55,298.78,565.93,302.83,570.9z"
							/>
						<path class="st1" d="M302.83,487.59v83.31c-4.05-4.97-7.73-9.35-10.81-12.96v-60.97c0-5.17,4.29-9.38,9.57-9.38H302.83z"/>
						<path d="M302.83,478.2v9.39h-1.24c-5.28,0-9.57,4.21-9.57,9.38v60.97c-5.86-6.86-9.56-10.92-9.56-10.92v-50.05
							c0-10.32,8.61-18.77,19.13-18.77H302.83z"/>
						<path d="M297.38,765.55l-5.37,0.46c-5.25,0-9.55,4.22-9.55,9.37v9.4c-36.89,0-89.24-5.54-89.24-55.37
							c0-14.93,6.4-27.36,15.79-37.56c-4.11,12.05-6.23,24.08-6.23,37.56c0,29.9,21.73,44.22,70.13,45.83
							c0.04-4.73,1.87-9.04,4.86-12.32c-3.07-4.48-4.87-9.88-4.87-15.68v-81.88c-6.15,2.04-14.13,5-22.48,8.99
							c-1.35,0.64-2.77,0.94-4.17,0.94c-3.47,0-6.8-1.86-8.48-5.06c22.33-12.23,44.69-17.47,44.69-17.47v94.48
							C282.46,756.14,288.87,763.65,297.38,765.55z"/>
						<path class="st0" d="M292.02,784.09c1.84-0.25,3.66-0.59,5.46-1c-1.76,0.42-3.58,0.77-5.46,1.04V784.09z"/>
						<path d="M292.02,557.94v99.87c-5.64-3.58-9.56-5.05-9.56-5.05V547.02C282.46,547.02,286.16,551.08,292.02,557.94z"/>
						<path d="M292.02,784.24v0.54h-9.56c2.8,0,5.51-0.16,8.12-0.46l0.08-0.01L292.02,784.24z"/>
						<path d="M292.02,784.13v0.11l-1.36,0.07C291.12,784.25,291.57,784.19,292.02,784.13z"/>
						<path d="M292.02,784.09v0.04c-0.45,0.06-0.9,0.12-1.36,0.18l-0.08,0.01l-0.68,0.04C290.61,784.29,291.32,784.2,292.02,784.09z
							"/>
						<path d="M289.9,784.36l0.68-0.04c-2.61,0.3-5.32,0.46-8.12,0.46C284.97,784.78,287.45,784.64,289.9,784.36z"/>
						<path d="M282.46,784.78l7.44-0.42C287.45,784.64,284.97,784.78,282.46,784.78z"/>
						<path d="M282.46,547.02v105.74c0,0-22.36,5.24-44.69,17.47c-0.05-0.07-0.09-0.15-0.13-0.23c-2.31-4.66-0.33-10.28,4.42-12.54
							c12.33-5.88,23.76-9.71,30.84-11.82V581.2c-8.04,12.98-15.48,24.61-22.37,35.39c-19.91,31.13-34.03,53.23-41.52,75.26
							c-9.39,10.2-15.79,22.63-15.79,37.56C193.22,673.68,225.93,642.83,282.46,547.02z"/>
						<path d="M277.77,762.92c-2.99,3.28-4.82,7.59-4.86,12.32c-48.4-1.61-70.13-15.93-70.13-45.83c0-13.48,2.12-25.51,6.23-37.56
							c8.1-8.82,18.43-15.97,28.76-21.62c1.68,3.2,5.01,5.06,8.48,5.06c1.4,0,2.82-0.3,4.17-0.94c8.35-3.99,16.33-6.95,22.48-8.99
							v81.88C272.9,753.04,274.7,758.44,277.77,762.92z"/>
						<path d="M272.9,581.2v64.44c-7.08,2.11-18.51,5.94-30.84,11.82c-4.75,2.26-6.73,7.88-4.42,12.54
							c0.04,0.08,0.08,0.16,0.13,0.23c-10.33,5.65-20.66,12.8-28.76,21.62c7.49-22.03,21.61-44.13,41.52-75.26
							C257.42,605.81,264.86,594.18,272.9,581.2z"/>
					</g>
					<g>
					</g>
				</g>
			</g>
		</g>
		<g>
			<path class="st4" d="M281.57,166.27c-1.01-12.22-11.81-22.15-24.07-22.15H230.1l-30.12,118.06h89.54L281.57,166.27z"/>
			<path class="st5" d="M202.69,144.12c-12.26,0-23.05,9.94-24.07,22.15l-7.95,95.91h59.42V144.12H202.69z"/>
			<path class="st6" d="M234.61,207.97h-4.52l-4.52,58.73h9.04V207.97z"/>
			<path class="st7" d="M225.58,207.97h4.52v58.73h-4.52V207.97z"/>
			<path class="st6" d="M202.69,180.86v54.21c14.97,0,27.11-12.14,27.11-27.11C229.8,192.99,217.66,180.86,202.69,180.86z"/>
			<path class="st5" d="M229.8,207.97c0,14.97,12.14,27.11,27.11,27.11v-54.21C241.93,180.86,229.8,192.99,229.8,207.97z"/>
			<path class="st8" d="M284.61,253.14H230.1l-12.05,34.64l89.15-12.05C307.2,263.28,297.07,253.14,284.61,253.14z"/>
			<path class="st9" d="M230.1,253.14h-54.51c-12.46,0-22.59,10.13-22.59,22.59l77.1,12.05V253.14z"/>
			<path d="M230.1,298.32h77.1v-22.59h-77.1l-12.05,11.29L230.1,298.32z"/>
			<path class="st8" d="M152.99,275.73h77.1v22.59h-77.1V275.73z"/>
		</g>
		<g>
			<polygon class="st10" points="843.01,304.15 721.56,304.15 731.48,274.88 833.1,274.88 			"/>
			<path class="st11" d="M828.57,274.88h-92.56v-61.32c0-25.56,20.72-46.28,46.28-46.28l0,0c25.56,0,46.28,20.72,46.28,46.28V274.88
				z"/>
			<g>
				<path class="st12" d="M782.29,227.02L782.29,227.02c-4.37,0-7.91-3.54-7.91-7.91v-18.99c0-4.37,3.54-7.91,7.91-7.91l0,0
					c4.37,0,7.91,3.54,7.91,7.91v18.99C790.2,223.47,786.66,227.02,782.29,227.02z"/>
				<path class="st12" d="M782.29,258.66L782.29,258.66c-4.37,0-7.91-3.54-7.91-7.91l0,0c0-4.37,3.54-7.91,7.91-7.91l0,0
					c4.37,0,7.91,3.54,7.91,7.91l0,0C790.2,255.12,786.66,258.66,782.29,258.66z"/>
			</g>
			<path d="M836.84,273.61c-0.54-1.61-2.05-2.69-3.75-2.69h-0.58v-57.36c0-27.7-22.54-50.24-50.24-50.24s-50.24,22.54-50.24,50.24
				v57.36h-0.58c-1.7,0-3.2,1.08-3.75,2.69l-9.92,29.27c-0.41,1.21-0.21,2.54,0.53,3.57c0.74,1.04,1.94,1.65,3.21,1.65h121.46
				c1.28,0,2.47-0.61,3.21-1.65c0.74-1.04,0.94-2.37,0.53-3.57L836.84,273.61z M739.96,213.56c0-23.34,18.99-42.32,42.32-42.32
				c23.34,0,42.32,18.99,42.32,42.32v57.36h-84.65V213.56L739.96,213.56z M727.07,300.19l7.24-21.36h95.95l7.24,21.36H727.07z"/>
			<path d="M782.29,137.22c2.18,0,3.96-1.77,3.96-3.96v-23.73c0-2.18-1.77-3.96-3.96-3.96c-2.18,0-3.96,1.77-3.96,3.96v23.73
				C778.33,135.45,780.1,137.22,782.29,137.22z"/>
			<path d="M782.29,152.63c1.04,0,2.06-0.42,2.8-1.16c0.74-0.74,1.16-1.76,1.16-2.8c0-1.04-0.42-2.06-1.16-2.8
				c-0.74-0.74-1.76-1.16-2.8-1.16c-1.04,0-2.06,0.42-2.8,1.16c-0.74,0.74-1.16,1.76-1.16,2.8c0,1.04,0.42,2.06,1.16,2.8
				C780.23,152.21,781.25,152.63,782.29,152.63z"/>
			<path d="M722.76,215.41c0-2.18-1.77-3.96-3.96-3.96h-18.16c-2.18,0-3.96,1.77-3.96,3.96c0,2.18,1.77,3.96,3.96,3.96h18.16
				C720.98,219.36,722.76,217.59,722.76,215.41z"/>
			<path d="M684.98,211.45c-1.04,0-2.06,0.42-2.8,1.16c-0.74,0.74-1.16,1.76-1.16,2.8s0.42,2.06,1.16,2.8
				c0.74,0.74,1.76,1.16,2.8,1.16c1.04,0,2.06-0.42,2.8-1.16c0.74-0.74,1.16-1.76,1.16-2.8s-0.42-2.06-1.16-2.8
				C687.04,211.87,686.02,211.45,684.98,211.45z"/>
			<path d="M748.35,143.8c0.63,1.52,2.1,2.44,3.66,2.44c0.5,0,1.02-0.1,1.51-0.3c2.02-0.84,2.98-3.15,2.14-5.17l-5.36-12.94
				c-0.84-2.02-3.15-2.98-5.17-2.14c-2.02,0.84-2.98,3.15-2.14,5.17L748.35,143.8z"/>
			<path d="M709.17,189.08c1.55,0,3.02-0.92,3.66-2.44c0.84-2.02-0.12-4.33-2.14-5.17l-12.94-5.36c-2.02-0.83-4.33,0.12-5.17,2.14
				c-0.84,2.02,0.12,4.33,2.14,5.17l12.94,5.36C708.15,188.98,708.66,189.08,709.17,189.08z"/>
			<path d="M865.58,211.45h-18.16c-2.18,0-3.96,1.77-3.96,3.96c0,2.18,1.77,3.96,3.96,3.96h18.16c2.18,0,3.96-1.77,3.96-3.96
				C869.54,213.22,867.77,211.45,865.58,211.45z"/>
			<path d="M882.39,212.61c-0.74-0.74-1.76-1.16-2.8-1.16c-1.04,0-2.06,0.42-2.8,1.16c-0.74,0.74-1.16,1.76-1.16,2.8
				s0.42,2.06,1.16,2.8c0.74,0.74,1.76,1.16,2.8,1.16c1.04,0,2.06-0.42,2.8-1.16c0.74-0.74,1.16-1.76,1.16-2.8
				C883.55,214.37,883.12,213.35,882.39,212.61z"/>
			<path d="M838.25,163.4c1.01,0,2.02-0.39,2.8-1.16l19.46-19.46c1.54-1.54,1.54-4.05,0-5.59c-1.55-1.54-4.05-1.54-5.59,0
				l-19.46,19.46c-1.54,1.54-1.54,4.05,0,5.59C836.22,163.01,837.24,163.4,838.25,163.4z"/>
			<path d="M723.53,162.24c0.77,0.77,1.78,1.16,2.8,1.16c1.01,0,2.02-0.39,2.8-1.16c1.54-1.54,1.54-4.05,0-5.59l-19.46-19.46
				c-1.55-1.54-4.05-1.54-5.59,0c-1.54,1.54-1.54,4.05,0,5.59L723.53,162.24z"/>
			<path d="M811.06,145.94c0.5,0.2,1.01,0.3,1.51,0.3c1.55,0,3.02-0.92,3.66-2.44l5.36-12.94c0.84-2.02-0.12-4.33-2.14-5.17
				c-2.02-0.83-4.33,0.12-5.17,2.14l-5.36,12.94C808.08,142.79,809.04,145.11,811.06,145.94z"/>
			<path d="M866.83,176.1l-12.94,5.36c-2.02,0.84-2.98,3.15-2.14,5.17c0.63,1.52,2.1,2.44,3.66,2.44c0.5,0,1.02-0.1,1.51-0.3
				l12.94-5.36c2.02-0.84,2.98-3.15,2.14-5.17C871.17,176.23,868.85,175.27,866.83,176.1z"/>
			<path d="M782.29,188.25c-6.54,0-11.87,5.32-11.87,11.87v18.99c0,6.54,5.32,11.87,11.87,11.87c6.54,0,11.87-5.32,11.87-11.87
				v-18.99C794.15,193.57,788.83,188.25,782.29,188.25z M786.24,219.1c0,2.18-1.77,3.96-3.96,3.96c-2.18,0-3.96-1.77-3.96-3.96
				v-18.99c0-2.18,1.77-3.96,3.96-3.96c2.18,0,3.96,1.77,3.96,3.96V219.1z"/>
			<path d="M782.29,238.88c-6.54,0-11.87,5.32-11.87,11.87c0,6.54,5.32,11.87,11.87,11.87c6.54,0,11.87-5.32,11.87-11.87
				C794.15,244.21,788.83,238.88,782.29,238.88z M782.29,254.7c-2.18,0-3.96-1.77-3.96-3.96s1.77-3.96,3.96-3.96
				c2.18,0,3.96,1.77,3.96,3.96S784.47,254.7,782.29,254.7z"/>
		</g>
	</g>
</g>
</svg>
