<svg xmlns="http://www.w3.org/2000/svg" viewBox="0 0 689.93 678.42"><defs><style>.cls-1{fill:#a12732;}.cls-2{fill:#7a202f;}.cls-3{fill:#d6d521;}.cls-4{fill:#010001;}.cls-5{fill:#88b337;}.cls-6{fill:#79a125;}.cls-7{fill:#e0d2c1;}</style></defs><g id="Layer_Imagen" data-name="Layer Imagen"><path id="Layer" class="cls-1" d="M369.05,200H691V820.93h-322Z" transform="translate(-185.07 -154)"/><path id="Layer-2" data-name="Layer" class="cls-2" d="M369.05,647.1V819.58H691V289.36Z" transform="translate(-185.07 -154)"/><path id="Layer-3" data-name="Layer" class="cls-1" d="M415.05,154H645v46h-230Z" transform="translate(-185.07 -154)"/><path id="Layer-4" data-name="Layer" class="cls-1" d="M415.05,177H645v23h-230Z" transform="translate(-185.07 -154)"/><g id="Layer-5" data-name="Layer"><path id="Layer-6" data-name="Layer" d="M415.05,257.49h46v46h-46Z" transform="translate(-185.07 -154)"/><path id="Layer-7" data-name="Layer" d="M507,257.49h46v46H507Z" transform="translate(-185.07 -154)"/><path id="Layer-8" data-name="Layer" d="M599,257.49h46v46H599Z" transform="translate(-185.07 -154)"/><path id="Layer-9" data-name="Layer" d="M415.05,349.47h46v46h-46Z" transform="translate(-185.07 -154)"/><path id="Layer-10" data-name="Layer" d="M507,349.47h46v46H507Z" transform="translate(-185.07 -154)"/><path id="Layer-11" data-name="Layer" class="cls-3" d="M599,349.47h46v46H599Z" transform="translate(-185.07 -154)"/><path id="Layer-12" data-name="Layer" d="M415.05,441.47h46v46h-46Z" transform="translate(-185.07 -154)"/><path id="Layer-13" data-name="Layer" d="M507,441.47h46v46H507Z" transform="translate(-185.07 -154)"/><path id="Layer-14" data-name="Layer" d="M599,441.47h46v46H599Z" transform="translate(-185.07 -154)"/><path id="Layer-15" data-name="Layer" class="cls-3" d="M413.7,533.46h46v46h-46Z" transform="translate(-185.07 -154)"/><path id="Layer-16" data-name="Layer" d="M507,533.46h46v46H507Z" transform="translate(-185.07 -154)"/><path id="Layer-17" data-name="Layer" class="cls-4" d="M599,533.46h46v46H599Z" transform="translate(-185.07 -154)"/><path id="Layer-18" data-name="Layer" d="M415.05,628.14h46v46h-46Z" transform="translate(-185.07 -154)"/><path id="Layer-19" data-name="Layer" d="M508.38,625.44h46v46h-46Z" transform="translate(-185.07 -154)"/><path id="Layer-20" data-name="Layer" d="M599,625.44h46v46H599Z" transform="translate(-185.07 -154)"/><path id="Layer-21" data-name="Layer" d="M461,728.93H599v92H461Z" transform="translate(-185.07 -154)"/></g><path id="Layer-22" data-name="Layer" class="cls-1" d="M518.54,728.93h23v92h-23Z" transform="translate(-185.07 -154)"/><path id="Layer-23" data-name="Layer" class="cls-5" d="M297.76,639.81a46.24,46.24,0,0,0,.88-26,45.53,45.53,0,0,0-33.5-33.08,46,46,0,0,0-55.73,33.74,45.67,45.67,0,0,0,.27,23,66.53,66.53,0,0,1-5.41,51.21,57.49,57.49,0,1,0,100.53,1.68A64.63,64.63,0,0,1,297.76,639.81Z" transform="translate(-185.07 -154)"/><path id="Layer-24" data-name="Layer" class="cls-6" d="M242.57,625.44h23v207h-23Z" transform="translate(-185.07 -154)"/><path id="Layer-25" data-name="Layer" class="cls-5" d="M849.71,639.81a46.41,46.41,0,0,0,.87-26,45.53,45.53,0,0,0-33.5-33.08,46,46,0,0,0-55.73,33.74,45.39,45.39,0,0,0-1.33,11,46.21,46.21,0,0,0,1.6,12,66.49,66.49,0,0,1-5.4,51.25,57.49,57.49,0,1,0,100.52,1.69A64.68,64.68,0,0,1,849.71,639.81Z" transform="translate(-185.07 -154)"/><path id="Layer-26" data-name="Layer" class="cls-6" d="M794.51,625.44h23v207h-23Z" transform="translate(-185.07 -154)"/><path id="Layer-27" data-name="Layer" class="cls-7" d="M185.07,809.43H875v23H185.07Z" transform="translate(-185.07 -154)"/></g></svg>