<svg xmlns="http://www.w3.org/2000/svg" viewBox="0 0 729.43 711.66"><defs><style>.cls-1{fill:#f5cbaa;}.cls-2{fill:#6a18ea;}.cls-3{fill:#4c4854;}.cls-4{fill:#ffcd00;}.cls-5{fill:#ebbf00;}.cls-6{fill:#6d6e71;}.cls-7{fill:#f7941d;}.cls-8{fill:#006df0;}.cls-9{fill:#005ece;}.cls-10{fill:#ffbcab;}.cls-11{fill:#f15a29;}.cls-12{fill:#231f20;}.cls-13{fill:#fd5;}.cls-14{fill:#edbe00;}.cls-15{fill:#ffccbd;}.cls-16{fill:#f9a58d;}.cls-17{fill:#a30f59;}.cls-18{fill:#840c48;}.cls-19{fill:#00c6cd;}</style></defs><g id="Layer_Imagen" data-name="Layer Imagen"><path d="M746.23,595.05V819.31a9.35,9.35,0,0,1-9.35,9.35H671.47a103.13,103.13,0,0,1-10.39-.53l1,.53H400.49a46.78,46.78,0,0,1-46.72-46.73V314.72A46.77,46.77,0,0,1,400.49,268H624.75a46.77,46.77,0,0,1,46.72,46.72V443.2l69.26,129.86A47,47,0,0,1,746.23,595.05Zm-9.35,224.26V595.05a37.32,37.32,0,0,0-4.4-17.59L662.13,445.54V314.72a37.39,37.39,0,0,0-37.38-37.38H400.49a37.39,37.39,0,0,0-37.38,37.38V781.93a37.38,37.38,0,0,0,37.38,37.38H624.75a37.32,37.32,0,0,0,17.88-4.54,93.16,93.16,0,0,0,28.84,4.54Z" transform="translate(-155.4 -117)"/><path d="M736.88,595.05V819.31H671.47a93.16,93.16,0,0,1-28.84-4.54,37.75,37.75,0,0,0,9.25-7.12A84.37,84.37,0,0,0,671.47,810h56.07V595.05a28.21,28.21,0,0,0-3.3-13.19l-52.77-98.94V669.8a9.35,9.35,0,0,1-9.34,9.35V445.54l70.35,131.92A37.32,37.32,0,0,1,736.88,595.05Z" transform="translate(-155.4 -117)"/><path class="cls-1" d="M727.54,595.05V810H671.47a84.37,84.37,0,0,1-19.59-2.32,37.31,37.31,0,0,0,10.25-25.72V679.15a9.35,9.35,0,0,0,9.34-9.35V482.92l52.77,98.94A28.21,28.21,0,0,1,727.54,595.05Z" transform="translate(-155.4 -117)"/><path class="cls-1" d="M662.13,725.87v56.06a37.31,37.31,0,0,1-10.25,25.72,84.24,84.24,0,0,1-64.49-80,9.65,9.65,0,0,0,.17-1.77Z" transform="translate(-155.4 -117)"/><path class="cls-1" d="M662.13,679.15v46.72H587.56a9.36,9.36,0,0,0-1.6-5.23l-60.62-89.71a28,28,0,0,1,46.46-31.39l.17.24,54.55,75.5a9.36,9.36,0,0,0,7.58,3.87Z" transform="translate(-155.4 -117)"/><path d="M662.13,669.8v9.35h-28a9.36,9.36,0,0,1-7.58-3.87L572,599.78l-.17-.24a28,28,0,0,0-46.46,31.39L586,720.64a9.36,9.36,0,0,1,1.6,5.23h-9.34L517.6,636.16a37.38,37.38,0,1,1,61.94-41.85L634.1,669.8Z" transform="translate(-155.4 -117)"/><path d="M662.13,445.54V669.8h-28l-54.56-75.49a37.38,37.38,0,1,0-61.94,41.85l60.62,89.71H363.11V352.1h299Zm-9.35,214.92v-299H372.46V716.52H560.63l-50.77-75.13a46.72,46.72,0,0,1,77.34-52.45l51.67,71.52Z" transform="translate(-155.4 -117)"/><path d="M662.13,314.72V352.1h-299V314.72a37.39,37.39,0,0,1,37.38-37.38H624.75A37.39,37.39,0,0,1,662.13,314.72Zm-9.35,28v-28a28.06,28.06,0,0,0-28-28H400.49a28.06,28.06,0,0,0-28,28v28Z" transform="translate(-155.4 -117)"/><path class="cls-2" d="M652.78,445.54V660.46H638.87L587.2,588.94a46.72,46.72,0,0,0-77.34,52.45l50.77,75.13H372.46V361.44H652.78ZM634.1,539V501.61a9.35,9.35,0,0,0-9.35-9.35H568.69a9.34,9.34,0,0,0-9.35,9.35V539a9.35,9.35,0,0,0,9.35,9.35h56.06A9.35,9.35,0,0,0,634.1,539Zm0-74.75V389.47a9.35,9.35,0,0,0-9.35-9.34H400.49a9.35,9.35,0,0,0-9.35,9.34v74.76a9.35,9.35,0,0,0,9.35,9.34H624.75A9.35,9.35,0,0,0,634.1,464.23Zm-93.45,37.38a9.34,9.34,0,0,0-9.34-9.35H400.49a9.35,9.35,0,1,0,0,18.69H531.31A9.34,9.34,0,0,0,540.65,501.61Zm0,37.37a9.34,9.34,0,0,0-9.34-9.34H475.24a9.35,9.35,0,0,0,0,18.69h56.07A9.35,9.35,0,0,0,540.65,539ZM484.59,651.11a9.35,9.35,0,0,0-9.35-9.34H400.49a9.35,9.35,0,1,0,0,18.69h74.75A9.35,9.35,0,0,0,484.59,651.11Zm0,37.38a9.35,9.35,0,1,0-9.35,9.35A9.35,9.35,0,0,0,484.59,688.49ZM465.9,576.36a9.35,9.35,0,0,0-9.35-9.34H400.49a9.34,9.34,0,1,0,0,18.68h56.06A9.35,9.35,0,0,0,465.9,576.36Zm0,37.38a9.35,9.35,0,0,0-9.35-9.35H400.49a9.35,9.35,0,1,0,0,18.69h56.06A9.35,9.35,0,0,0,465.9,613.74ZM447.21,539a9.34,9.34,0,0,0-9.34-9.34H400.49a9.35,9.35,0,1,0,0,18.69h37.38A9.35,9.35,0,0,0,447.21,539Zm0,149.51a9.35,9.35,0,1,0-9.34,9.35A9.34,9.34,0,0,0,447.21,688.49Zm-37.38,0a9.35,9.35,0,1,0-9.34,9.35A9.34,9.34,0,0,0,409.83,688.49Z" transform="translate(-155.4 -117)"/><path class="cls-3" d="M652.78,314.72v28H372.46v-28a28.06,28.06,0,0,1,28-28H624.75A28.06,28.06,0,0,1,652.78,314.72Zm-74.75,0a9.34,9.34,0,0,0-9.34-9.34H503.28a9.34,9.34,0,1,0,0,18.68h65.41A9.34,9.34,0,0,0,578,314.72Zm-112.13,0a9.35,9.35,0,1,0-9.35,9.34A9.35,9.35,0,0,0,465.9,314.72Z" transform="translate(-155.4 -117)"/><path d="M651.88,807.65a37.75,37.75,0,0,1-9.25,7.12,93.48,93.48,0,0,1-64.6-88.9h9.53a9.65,9.65,0,0,1-.17,1.77A84.24,84.24,0,0,0,651.88,807.65Z" transform="translate(-155.4 -117)"/><path d="M634.1,501.61V539a9.35,9.35,0,0,1-9.35,9.35H568.69a9.35,9.35,0,0,1-9.35-9.35V501.61a9.34,9.34,0,0,1,9.35-9.35h56.06A9.35,9.35,0,0,1,634.1,501.61ZM624.75,539V501.61H568.69V539Z" transform="translate(-155.4 -117)"/><path d="M634.1,389.47v74.76a9.35,9.35,0,0,1-9.35,9.34H400.49a9.35,9.35,0,0,1-9.35-9.34V389.47a9.35,9.35,0,0,1,9.35-9.34H624.75A9.35,9.35,0,0,1,634.1,389.47Zm-9.35,74.76V389.47H400.49v74.76Z" transform="translate(-155.4 -117)"/><path d="M642.63,814.77a37.32,37.32,0,0,1-17.88,4.54H400.49a37.38,37.38,0,0,1-37.38-37.38V725.87H578A93.48,93.48,0,0,0,642.63,814.77ZM400.49,810h212a102.82,102.82,0,0,1-43.35-74.76H372.46v46.72A28.06,28.06,0,0,0,400.49,810Z" transform="translate(-155.4 -117)"/><path d="M624.75,501.61V539H568.69V501.61Zm-9.34,28V511H578v18.69Z" transform="translate(-155.4 -117)"/><path d="M624.75,389.47v74.76H400.49V389.47Zm-9.34,65.41V398.82H409.83v56.06Z" transform="translate(-155.4 -117)"/><rect class="cls-3" x="422.63" y="393.95" width="37.38" height="18.69"/><path class="cls-3" d="M615.41,398.82v56.06H409.83V398.82Zm-93.45,28a9.34,9.34,0,0,0-9.34-9.34H437.87a9.35,9.35,0,1,0,0,18.69h74.75A9.35,9.35,0,0,0,522,426.85Z" transform="translate(-155.4 -117)"/><path class="cls-3" d="M612.48,810h-212a28.06,28.06,0,0,1-28-28V735.21H569.13A102.82,102.82,0,0,0,612.48,810Zm-99.86-9.35a28,28,0,1,0-28-28A28,28,0,0,0,512.62,800.62Z" transform="translate(-155.4 -117)"/><path d="M568.69,305.38a9.34,9.34,0,0,1,0,18.68H503.28a9.34,9.34,0,1,1,0-18.68Z" transform="translate(-155.4 -117)"/><path d="M531.31,492.26a9.35,9.35,0,0,1,0,18.69H400.49a9.35,9.35,0,1,1,0-18.69Z" transform="translate(-155.4 -117)"/><path d="M531.31,529.64a9.35,9.35,0,0,1,0,18.69H475.24a9.35,9.35,0,0,1,0-18.69Z" transform="translate(-155.4 -117)"/><path d="M540.65,772.59a28,28,0,1,1-28-28A28,28,0,0,1,540.65,772.59Zm-18.69,0a9.34,9.34,0,1,0-9.34,9.34A9.34,9.34,0,0,0,522,772.59Z" transform="translate(-155.4 -117)"/><path d="M512.62,417.51a9.35,9.35,0,0,1,0,18.69H437.87a9.35,9.35,0,1,1,0-18.69Z" transform="translate(-155.4 -117)"/><circle class="cls-3" cx="357.22" cy="655.59" r="9.34"/><path d="M475.24,641.77a9.35,9.35,0,1,1,0,18.69H400.49a9.35,9.35,0,1,1,0-18.69Z" transform="translate(-155.4 -117)"/><path d="M475.24,679.15a9.35,9.35,0,1,1-9.34,9.34A9.35,9.35,0,0,1,475.24,679.15Z" transform="translate(-155.4 -117)"/><path d="M456.55,305.38a9.34,9.34,0,1,1-9.34,9.34A9.35,9.35,0,0,1,456.55,305.38Z" transform="translate(-155.4 -117)"/><path d="M456.55,567a9.34,9.34,0,1,1,0,18.68H400.49a9.34,9.34,0,1,1,0-18.68Z" transform="translate(-155.4 -117)"/><path d="M456.55,604.39a9.35,9.35,0,1,1,0,18.69H400.49a9.35,9.35,0,1,1,0-18.69Z" transform="translate(-155.4 -117)"/><path d="M437.87,529.64a9.35,9.35,0,0,1,0,18.69H400.49a9.35,9.35,0,1,1,0-18.69Z" transform="translate(-155.4 -117)"/><path d="M437.87,679.15a9.35,9.35,0,1,1-9.35,9.34A9.34,9.34,0,0,1,437.87,679.15Z" transform="translate(-155.4 -117)"/><path d="M400.49,679.15a9.35,9.35,0,1,1-9.35,9.34A9.34,9.34,0,0,1,400.49,679.15Z" transform="translate(-155.4 -117)"/><path d="M522.54,135.58v9.54H513v-9.54ZM513,191.64v13.59h9.54V191.64Zm28.63,51.76v-9.54h-9.54v-9.55h-9.55V243.4Zm19.08-70.85H532.09v9.54h28.62Zm0,19.09h13.36v-9.55H560.71Zm0,13.59v9.54h22.9V191.64h-9.54v13.59Zm-28.62-84h-9.55v14.31h9.55Zm-9.55,42.93h9.55V145.12h-9.55v9.54H513v27.43h9.54Zm-61.06,8.35v19.09H471v-9.55h14.31v-9.54Zm70.61,19.09v-9.55h-9.55v9.55Zm19.08,9.54h9.54v-9.54h-9.54Zm22.9-19.09h9.54v-9.54h-9.54Zm-32.44,9.55h-9.54v13.59h-9.55v9.54h19.09ZM513,224.31h9.54v-9.54H513Zm28.63-9.54v9.54h19.08v-9.54Zm28.62,19.09v-9.55h-9.54v9.55Zm13.36,9.54v-9.54H570.25v9.54Zm-32.44,0h9.54v-9.54h-9.54Zm-46.75-61.31v-9.54h-9.55v9.54h-9.54v9.55H513v-9.55Zm0-17.89H461.48V121.27h42.94Zm-9.55-33.39H471v23.85h23.85ZM487.72,138h-9.54v9.55h9.54Zm95.89-16.69V164.2H540.67V121.27Zm-9.54,9.54H550.21v23.85h23.86ZM566.91,138h-9.54v9.55h9.54Zm-105.43,62.5h42.94V243.4H461.48Zm9.54,33.4h23.85V210H471Zm7.16-7.16h9.54v-9.54h-9.54Z" transform="translate(-155.4 -117)"/><g id="Credit_card-2" data-name="Credit card-2"><path class="cls-4" d="M880.44,157.37v37.06a12.35,12.35,0,0,1-12.35,12.35H756.94a12.35,12.35,0,0,1-12.35-12.35V157.37Z" transform="translate(-155.4 -117)"/><path class="cls-5" d="M824.86,206.78h43.23a12.35,12.35,0,0,0,12.35-12.35V151.2a55.55,55.55,0,0,1-55.51,55.58Z" transform="translate(-155.4 -117)"/><path class="cls-4" d="M744.59,138.85V145H880.44v-6.17a12.35,12.35,0,0,0-12.35-12.35H756.94A12.35,12.35,0,0,0,744.59,138.85Z" transform="translate(-155.4 -117)"/><path class="cls-6" d="M744.59,145H880.44v12.35H744.59Z" transform="translate(-155.4 -117)"/><circle class="cls-7" cx="703.43" cy="68.16" r="9.26"/><path class="cls-8" d="M701.36,225.3V284h30.88V225.3Z" transform="translate(-155.4 -117)"/><path class="cls-9" d="M723,225.3h9.27V284H723Z" transform="translate(-155.4 -117)"/><path class="cls-10" d="M829.25,242.34l38.59-22.29a9.27,9.27,0,0,1,9.27,16.06L807.3,279.52a24.71,24.71,0,0,1-15.5,3.61l-52.15-5.22c-.82-.08-1.65-.12-2.47-.12h-4.94V234.56H736a12.39,12.39,0,0,0,4.58-.88l17.91-7.16a37,37,0,0,1,22.05-1.71l41.86,9.61A9.25,9.25,0,0,1,829,245.76h0a9.25,9.25,0,0,1-11.34,6.55h0l-29.84-5.8" transform="translate(-155.4 -117)"/><circle class="cls-11" cx="687.99" cy="68.16" r="9.26"/><path class="cls-12" d="M756.94,209.86H868.09a15.45,15.45,0,0,0,15.44-15.43V138.85a15.46,15.46,0,0,0-15.44-15.44H756.94a15.46,15.46,0,0,0-15.44,15.44v55.58A15.45,15.45,0,0,0,756.94,209.86Zm111.15-6.17H756.94a9.26,9.26,0,0,1-9.26-9.26v-34H877.35v34A9.26,9.26,0,0,1,868.09,203.69ZM747.68,148.11H877.35v6.18H747.68Zm9.26-18.52H868.09a9.25,9.25,0,0,1,9.26,9.26v3.09H747.68v-3.09A9.25,9.25,0,0,1,756.94,129.59Z" transform="translate(-155.4 -117)"/><path class="cls-12" d="M858.83,172.81a12.34,12.34,0,0,0-7.75,2.76,12.35,12.35,0,1,0,0,19.18,12.35,12.35,0,1,0,7.75-21.94Zm-15.44,18.53a6.18,6.18,0,1,1,6.17-6.18A6.18,6.18,0,0,1,843.39,191.34Zm15.44,0a6.11,6.11,0,0,1-4-1.5,12.13,12.13,0,0,0,0-9.35,6.05,6.05,0,0,1,4-1.5,6.18,6.18,0,0,1,0,12.35Z" transform="translate(-155.4 -117)"/><path class="cls-12" d="M803.25,191.34H763.11a3.09,3.09,0,0,0,0,6.17h40.14a3.09,3.09,0,1,0,0-6.17Z" transform="translate(-155.4 -117)"/><path class="cls-12" d="M763.11,188.25h3.09a3.09,3.09,0,1,0,0-6.17h-3.09a3.09,3.09,0,0,0,0,6.17Z" transform="translate(-155.4 -117)"/><path class="cls-12" d="M775.46,188.25h3.09a3.09,3.09,0,1,0,0-6.17h-3.09a3.09,3.09,0,0,0,0,6.17Z" transform="translate(-155.4 -117)"/><path class="cls-12" d="M787.81,188.25h3.09a3.09,3.09,0,1,0,0-6.17h-3.09a3.09,3.09,0,0,0,0,6.17Z" transform="translate(-155.4 -117)"/><path class="cls-12" d="M803.25,182.08h-3.09a3.09,3.09,0,0,0,0,6.17h3.09a3.09,3.09,0,1,0,0-6.17Z" transform="translate(-155.4 -117)"/><path class="cls-12" d="M883.17,221.9a12.4,12.4,0,0,0-16.87-4.52L831,237.75a12.47,12.47,0,0,0-7.9-6.34l-41.87-9.61a40,40,0,0,0-23.88,1.85l-17.91,7.17a9.49,9.49,0,0,1-3.45.66h-.71V225.3a3.09,3.09,0,0,0-3.08-3.09H701.36a3.1,3.1,0,0,0-3.09,3.09V284a3.09,3.09,0,0,0,3.09,3.09h30.88a3.08,3.08,0,0,0,3.08-3.09v-3.08h1.86a19.53,19.53,0,0,1,2.16.11l52.16,5.21c.9.09,1.81.14,2.73.14a28.09,28.09,0,0,0,14.71-4.19l69.72-43.37a12.39,12.39,0,0,0,4.51-16.88Zm-154,59h-24.7V228.39h24.7Zm146.33-47.39L805.67,276.9a21.76,21.76,0,0,1-13.56,3.16L740,274.84c-.93-.09-1.86-.14-2.78-.14h-1.86v-37H736a15.46,15.46,0,0,0,5.74-1.1l17.9-7.17a34,34,0,0,1,20.22-1.57l41.75,9.58a6.17,6.17,0,0,1,4.52,5.12,2.91,2.91,0,0,0,0,.31,6.19,6.19,0,0,1-7.89,6.46l-.07,0-29.84-5.81a3.09,3.09,0,0,0-1.18,6.06l29.64,5.76A12.35,12.35,0,0,0,832,246.54h0a13,13,0,0,0,.4-2.47l37-21.37a6.18,6.18,0,0,1,9.26,5.32A6.31,6.31,0,0,1,875.48,233.49Z" transform="translate(-155.4 -117)"/><path class="cls-12" d="M716.8,234.56a3.09,3.09,0,0,0-3.09,3.09v3.09a3.09,3.09,0,0,0,6.18,0v-3.09A3.1,3.1,0,0,0,716.8,234.56Z" transform="translate(-155.4 -117)"/></g><path class="cls-13" d="M228.32,203.75l-.81.9C212.87,221.11,203,245.92,203,266.41c0,16.7,6.53,28.8,19.41,36,10,5.56,23.5,8.15,42.58,8.15l10.58-59.35L265,188.62Z" transform="translate(-155.4 -117)"/><path class="cls-14" d="M300.68,202.67l-35.67-14V310.53c19.09,0,32.62-2.59,42.58-8.15,12.88-7.17,19.41-19.27,19.41-36C327,244.8,316.42,219.18,300.68,202.67Z" transform="translate(-155.4 -117)"/><path class="cls-13" d="M247.25,117v15.12l-5.67,9.45,5.67,13.61L265,161.63l9.83-23.09L265,117Z" transform="translate(-155.4 -117)"/><path class="cls-14" d="M265,117v44.63l31-4.56,16.63-21.93V117Z" transform="translate(-155.4 -117)"/><path class="cls-15" d="M259.12,156.69a11.87,11.87,0,0,1-11.87-11.88V131.9H201.89v56.54a73.56,73.56,0,0,0,52,21.54H265l9.45-26.46L265,156.69Z" transform="translate(-155.4 -117)"/><path class="cls-16" d="M302.54,156.69H265V210h21.74a26.64,26.64,0,0,0,26.64-26.64v-15.8A10.85,10.85,0,0,0,302.54,156.69Z" transform="translate(-155.4 -117)"/><path class="cls-17" d="M258.1,269.3l-4.72-3.08-6.17,9.43,4.72,3.08a20.21,20.21,0,0,0,7.87,3.36v6.13H265l2.65-9.07-2.65-8c-3.39,0-4.3-.18-6.91-1.89Z" transform="translate(-155.4 -117)"/><path class="cls-17" d="M262.07,247.27a1.57,1.57,0,0,1-.19-1.26,3.93,3.93,0,0,1,3.13-3.22l1.89-7.86L265,226.24H259.8v6.44c-9.21,3.55-12.81,17.13-4.69,23.46a38.61,38.61,0,0,0,9.9,5.12l1.89-5.54L265,249a16.41,16.41,0,0,1-2.94-1.76Z" transform="translate(-155.4 -117)"/><path class="cls-18" d="M265.43,242.72h2.32a15.29,15.29,0,0,1,4.88,1.63l5,2.67,5.35-9.92c-4-2.06-6.63-4-11.87-5.24v-5.62H265v16.55l.42-.07Z" transform="translate(-155.4 -117)"/><path class="cls-18" d="M271.65,251.69A67,67,0,0,1,265,249v12.23c1,.37,1.92.72,2.88,1.06,2.2.77,3.13,2.26,2.77,4.4a5.26,5.26,0,0,1-5.26,4.47H265v17h6.06v-6.76c13.6-4.84,15.16-24.76.58-29.77Z" transform="translate(-155.4 -117)"/><path class="cls-19" d="M155.4,117h52.54v80.89H155.4Z" transform="translate(-155.4 -117)"/></g></svg>