<svg xmlns="http://www.w3.org/2000/svg" viewBox="0 0 715.09 677.99"><defs><style>.cls-1{fill:#46738c;}.cls-2{fill:#ff8c46;}.cls-3{fill:#ffb69e;}.cls-4{fill:#343e6b;}.cls-5{fill:#414b82;}.cls-6{fill:#252d5c;}.cls-7{fill:#1b224a;}.cls-8{fill:#fff;}.cls-9{fill:#ff3c3c;}.cls-10{fill:#80391b;}.cls-11{fill:#55c7a6;}.cls-12{fill:#78beff;}.cls-13{fill:#ba6746;}.cls-14{fill:#95573a;}.cls-15{fill:#7e8589;}.cls-16{fill:#414649;}.cls-17{fill:#f7b030;}.cls-18{fill:#694435;}.cls-19{fill:#c8e6eb;}.cls-20{fill:#a03c19;}.cls-21{fill:#cd5014;}.cls-22{fill:#6c9baa;}.cls-23{fill:#692823;}.cls-24{fill:#55879b;}.cls-25{fill:#a5c8cd;}.cls-26{fill:#53618c;}.cls-27{fill:#5f6e9b;}.cls-28{fill:#dc1428;}</style></defs><g id="Layer_Imagen" data-name="Layer Imagen"><path class="cls-1" d="M273.29,220.6V154.06c0-4,3.49-7.18,7.79-7.18H383.94c4.3,0,7.79,3.22,7.79,7.18V220.6c0,4-3.49,7.19-7.79,7.19H281.08C276.78,227.79,273.29,224.57,273.29,220.6Z" transform="translate(-155.13 -119.35)"/><path class="cls-2" d="M279.31,203.73a4,4,0,0,1-3-1.36,3.38,3.38,0,0,1,.64-5l31.73-23.06a4.1,4.1,0,0,1,5.43.59,3.39,3.39,0,0,1-.64,5L281.7,203A4,4,0,0,1,279.31,203.73Z" transform="translate(-155.13 -119.35)"/><ellipse class="cls-3" cx="62.09" cy="31.71" rx="16.86" ry="15.54"/><path class="cls-4" d="M228.9,325.26c-5.42,0-9.81-4.05-9.81-9V243.93c0-5,4.39-9,9.81-9s9.82,4.05,9.82,9v72.29C238.72,321.21,234.32,325.26,228.9,325.26Z" transform="translate(-155.13 -119.35)"/><path class="cls-5" d="M205.22,325.26c-5.42,0-9.82-4.05-9.82-9V243.93c0-5,4.4-9,9.82-9s9.81,4.05,9.81,9v72.29C215,321.21,210.64,325.26,205.22,325.26Z" transform="translate(-155.13 -119.35)"/><path class="cls-6" d="M286.1,196.21a8.54,8.54,0,0,0-11.2-2.41l-16.48,9.43v-14c-.05-9.74-8.76-17.66-19.32-17.66h-44c-10.78,0-19.6,8-19.65,17.75v55.4c0,4.16,3.66,7.54,8.18,7.54s8.17-3.38,8.17-7.54V189.36c0-1.43,1.59-2.73,3.3-2.73h.29v57.3h43.32V186.55h.38a3,3,0,0,1,3.13,2.73V216.7c0,5.88,7,9.42,12.42,6.34l28.83-16.5A7.17,7.17,0,0,0,286.1,196.21Z" transform="translate(-155.13 -119.35)"/><path class="cls-7" d="M286.1,196.21a8.54,8.54,0,0,0-11.2-2.41l-16.48,9.43v-14c-.05-9.74-8.76-17.66-19.32-17.66h-22v72.38h21.66V186.55h.38a3,3,0,0,1,3.13,2.73V216.7c0,5.87,7,9.42,12.42,6.34l28.83-16.5A7.17,7.17,0,0,0,286.1,196.21Z" transform="translate(-155.13 -119.35)"/><path class="cls-3" d="M286.1,196.21a8.54,8.54,0,0,0-11.2-2.41l8.58,12.74A7.17,7.17,0,0,0,286.1,196.21Z" transform="translate(-155.13 -119.35)"/><polygon class="cls-8" points="125.39 88.86 116.89 76.08 119.84 74.4 128.34 87.19 125.39 88.86"/><path class="cls-8" d="M175.46,240.82v3.88c0,4.16,3.66,7.54,8.17,7.54s8.18-3.38,8.18-7.54v-3.88Z" transform="translate(-155.13 -119.35)"/><path class="cls-3" d="M175.46,244.51v.19c0,4.16,3.66,7.54,8.17,7.54s8.18-3.38,8.18-7.54v-.19Z" transform="translate(-155.13 -119.35)"/><polygon class="cls-8" points="49.45 52.2 61.93 82.38 74.41 52.2 49.45 52.2"/><path class="cls-9" d="M222.48,181.83l-2.77-4.65,2.39-4a1.1,1.1,0,0,0-1-1.63h-8a1.11,1.11,0,0,0-1,1.63l2.4,4-2.77,4.64a2.92,2.92,0,0,0-.35,2.1l1.71,8,4.06,9.82,4.06-9.82,1.72-8A2.87,2.87,0,0,0,222.48,181.83Z" transform="translate(-155.13 -119.35)"/><rect class="cls-6" x="67.97" y="75.39" width="10.8" height="3.07"/><ellipse class="cls-10" cx="207.67" cy="161.85" rx="16.45" ry="15.16"/><path class="cls-10" d="M384,301.2H341.43c-10.31,0-18.83,7.72-18.88,17.22v17h15.87v-16.9a2.9,2.9,0,0,1,3-2.66h.15v19.56h42V315.83H384a2.89,2.89,0,0,1,3,2.66v16.9h15.87v-17C402.86,308.92,394.34,301.2,384,301.2Z" transform="translate(-155.13 -119.35)"/><path class="cls-11" d="M384,301.2H371a13.63,13.63,0,0,1-16.34,0H341.43c-10.31,0-18.83,7.72-18.88,17.22v10.65h15.87V318.49a2.9,2.9,0,0,1,3-2.66h.15v19.56h42V315.83H384a2.89,2.89,0,0,1,3,2.66v10.58h15.87V318.42C402.86,308.92,394.34,301.2,384,301.2Z" transform="translate(-155.13 -119.35)"/><ellipse class="cls-3" cx="123.97" cy="161.85" rx="16.45" ry="15.16"/><path class="cls-3" d="M300.33,301.2H257.72c-10.3,0-18.82,7.72-18.87,17.22v17h15.87v-16.9a2.89,2.89,0,0,1,3-2.66h.16v19.56h42V315.83h.41a2.9,2.9,0,0,1,3,2.66v16.9h15.87v-17C319.16,308.92,310.64,301.2,300.33,301.2Z" transform="translate(-155.13 -119.35)"/><path class="cls-6" d="M300.33,301.2H286.67a13.63,13.63,0,0,1-16.34,0H257.72c-10.3,0-18.82,7.72-18.87,17.22v10.65h15.87V318.49a2.89,2.89,0,0,1,3-2.66h.16v19.56h42V315.83h.42a2.89,2.89,0,0,1,3,2.66v10.58h15.87V318.42C319.16,308.92,310.64,301.2,300.33,301.2Z" transform="translate(-155.13 -119.35)"/><ellipse class="cls-3" cx="40.25" cy="161.61" rx="16.45" ry="15.16"/><path class="cls-3" d="M216.62,301H174c-10.31,0-18.83,7.73-18.88,17.23v17H171V318.25a2.9,2.9,0,0,1,3-2.66h.15v19.55h42V315.58h.42a2.9,2.9,0,0,1,3,2.67v16.89h15.87v-17C235.44,308.68,226.92,301,216.62,301Z" transform="translate(-155.13 -119.35)"/><path class="cls-12" d="M216.62,301H203a13.6,13.6,0,0,1-16.34,0H174c-10.31,0-18.83,7.73-18.88,17.23v10.65H171V318.25a2.9,2.9,0,0,1,3-2.66h.15v19.55h42V315.58h.42a2.9,2.9,0,0,1,3,2.67v10.58h15.87V318.18C235.44,308.68,226.92,301,216.62,301Z" transform="translate(-155.13 -119.35)"/><ellipse class="cls-3" cx="170.48" cy="189.02" rx="16.45" ry="15.16"/><path class="cls-3" d="M346.85,328.37H304.24c-10.31,0-18.83,7.72-18.88,17.22v17h15.88v-16.9a2.88,2.88,0,0,1,3-2.66h.15v19.56h42.05V343h.41a2.89,2.89,0,0,1,3,2.66v16.9h15.88v-17C365.67,336.09,357.15,328.37,346.85,328.37Z" transform="translate(-155.13 -119.35)"/><path class="cls-12" d="M346.85,328.37h-13a13.63,13.63,0,0,1-16.34,0H304.24c-10.31,0-18.83,7.72-18.88,17.22v10.65h15.88V345.66a2.88,2.88,0,0,1,3-2.66h.15v19.56h42.05V343h.41a2.89,2.89,0,0,1,3,2.66v10.58h15.88V345.59C365.67,336.09,357.15,328.37,346.85,328.37Z" transform="translate(-155.13 -119.35)"/><ellipse class="cls-13" cx="86.78" cy="189.02" rx="16.45" ry="15.16"/><path class="cls-13" d="M263.15,328.37H220.53c-10.3,0-18.82,7.72-18.87,17.22v17h15.87v-16.9a2.89,2.89,0,0,1,3-2.66h.16v19.56h42V343h.42a2.89,2.89,0,0,1,3,2.66v16.9H282v-17C282,336.09,273.45,328.37,263.15,328.37Z" transform="translate(-155.13 -119.35)"/><path class="cls-9" d="M263.15,328.37H249.49a13.63,13.63,0,0,1-16.34,0H220.53c-10.3,0-18.82,7.72-18.87,17.22v10.65h15.87V345.66a2.89,2.89,0,0,1,3-2.66h.16v19.56h42V343h.42a2.89,2.89,0,0,1,3,2.66v10.58H282V345.59C282,336.09,273.45,328.37,263.15,328.37Z" transform="translate(-155.13 -119.35)"/><path class="cls-14" d="M410.51,776.69c-4.2,0-7.6-3.09-7.6-6.89v-62c0-3.8,3.4-6.89,7.6-6.89s7.59,3.09,7.59,6.89v62C418.1,773.6,414.7,776.69,410.51,776.69Z" transform="translate(-155.13 -119.35)"/><path class="cls-14" d="M486.44,776.69c-4.19,0-7.59-3.09-7.59-6.89v-62c0-3.8,3.4-6.89,7.59-6.89S494,704,494,707.84v62C494,773.6,490.63,776.69,486.44,776.69Z" transform="translate(-155.13 -119.35)"/><path class="cls-14" d="M570,776.69c-4.2,0-7.6-3.09-7.6-6.89v-62c0-3.8,3.4-6.89,7.6-6.89s7.59,3.09,7.59,6.89v62C577.56,773.6,574.16,776.69,570,776.69Z" transform="translate(-155.13 -119.35)"/><path class="cls-14" d="M645.9,776.69c-4.2,0-7.59-3.09-7.59-6.89v-62c0-3.8,3.39-6.89,7.59-6.89s7.59,3.09,7.59,6.89v62C653.49,773.6,650.09,776.69,645.9,776.69Z" transform="translate(-155.13 -119.35)"/><path class="cls-15" d="M349.76,391.13H699.05c8.39,0,15.19,6.16,15.19,13.77V597.68c0,7.6-6.8,13.77-15.19,13.77H349.76c-8.39,0-15.18-6.17-15.18-13.77V404.9C334.58,397.29,341.37,391.13,349.76,391.13Z" transform="translate(-155.13 -119.35)"/><path class="cls-16" d="M365,418.67H683.86V583.91H365Z" transform="translate(-155.13 -119.35)"/><path class="cls-14" d="M714.24,583.91v13.77c0,7.6-6.8,13.77-15.19,13.77H349.76c-8.39,0-15.18-6.17-15.18-13.77V583.91Z" transform="translate(-155.13 -119.35)"/><path class="cls-16" d="M365,418.67H683.86V583.91H365Z" transform="translate(-155.13 -119.35)"/><path class="cls-17" d="M395.32,570.14h75.93v41.31H395.32Z" transform="translate(-155.13 -119.35)"/><path class="cls-14" d="M304.2,652.76H744.61V680.3H304.2Z" transform="translate(-155.13 -119.35)"/><path class="cls-18" d="M327,680.3h30.37V790.46H327Z" transform="translate(-155.13 -119.35)"/><path class="cls-18" d="M699.05,680.3h30.37V790.46H699.05Z" transform="translate(-155.13 -119.35)"/><path class="cls-18" d="M387.73,645.87H509.22v62H387.73Z" transform="translate(-155.13 -119.35)"/><path class="cls-18" d="M547.19,645.87H668.68v62H547.19Z" transform="translate(-155.13 -119.35)"/><path class="cls-18" d="M509.22,790.46H387.73V776.69c0-7.61,6.8-13.77,15.18-13.77H494c8.39,0,15.19,6.16,15.19,13.77v13.77Z" transform="translate(-155.13 -119.35)"/><path class="cls-18" d="M668.68,790.46H547.19V776.69c0-7.61,6.8-13.77,15.18-13.77h91.12c8.39,0,15.19,6.16,15.19,13.77v13.77Z" transform="translate(-155.13 -119.35)"/><path d="M699.05,618.33c12.58,0,22.77-9.25,22.78-20.65V404.9c0-11.4-10.2-20.64-22.78-20.66H349.76c-12.57,0-22.76,9.26-22.78,20.66V597.68c0,11.4,10.21,20.64,22.78,20.65ZM676.27,577H478.85v-6.88c0-3.8-3.4-6.89-7.6-6.89H395.32c-4.19,0-7.59,3.09-7.59,6.89V577H372.54V425.55H676.27ZM402.91,604.56V577h60.75v27.54Zm303.73-6.88c0,3.8-3.4,6.88-7.59,6.88H478.85V590.79H706.64ZM349.76,398H699.05c4.19,0,7.59,3.09,7.59,6.89V577H691.46V418.67c0-3.8-3.4-6.89-7.6-6.89H365c-4.2,0-7.6,3.09-7.6,6.89V577H342.17V404.9C342.17,401.1,345.57,398,349.76,398Zm-7.59,199.67v-6.89h45.56v13.77h-38C345.57,604.56,342.17,601.48,342.17,597.68Z" transform="translate(-155.13 -119.35)"/><path d="M744.61,645.87H676.27c0-3.8-3.4-6.88-7.59-6.88H547.19c-4.2,0-7.6,3.08-7.6,6.88H516.81c0-3.8-3.4-6.88-7.59-6.88H387.73c-4.2,0-7.6,3.08-7.6,6.88H304.2c-4.19,0-7.59,3.09-7.59,6.89V680.3c0,3.8,3.4,6.88,7.59,6.88h15.19V790.46c0,3.8,3.4,6.88,7.59,6.88h30.37c4.2,0,7.6-3.08,7.6-6.88V687.18h15.18v20.66c0,3.8,3.4,6.88,7.6,6.88h15.18V756c-12.57,0-22.76,9.26-22.78,20.66v13.77c0,3.8,3.4,6.88,7.6,6.88H509.22c4.19,0,7.59-3.08,7.59-6.88V776.69c0-11.4-10.2-20.64-22.78-20.66V714.72h15.19c4.19,0,7.59-3.08,7.59-6.88V687.18h22.78v20.66c0,3.8,3.4,6.88,7.6,6.88h15.18V756c-12.57,0-22.76,9.26-22.78,20.66v13.77c0,3.8,3.4,6.88,7.6,6.88H668.68c4.19,0,7.59-3.08,7.59-6.88V776.69c0-11.4-10.2-20.64-22.78-20.66V714.72h15.19c4.19,0,7.59-3.08,7.59-6.88V687.18h15.19V790.46c0,3.8,3.4,6.88,7.59,6.88h30.37c4.2,0,7.6-3.08,7.6-6.88V687.18h7.59c4.19,0,7.59-3.08,7.59-6.88V652.76C752.2,649,748.8,645.87,744.61,645.87ZM349.76,783.57H334.58V687.18h15.18Zm-38-110.16V659.64h68.33v13.77ZM501.63,776.69v6.88H395.32v-6.88c0-3.8,3.4-6.88,7.59-6.89H494C498.23,769.81,501.62,772.89,501.63,776.69ZM478.85,756H418.1V714.72h60.75ZM501.63,701H395.32V652.76H501.63Zm15.18-27.54V659.64h22.78v13.77ZM661.09,776.69v6.88H554.78v-6.88c0-3.8,3.4-6.88,7.59-6.89h91.12C657.68,769.81,661.08,772.89,661.09,776.69ZM638.31,756H577.56V714.72h60.75ZM661.09,701H554.78V652.76H661.09Zm60.74,82.62H706.64V687.18h15.19ZM737,673.41H676.27V659.64H737Z" transform="translate(-155.13 -119.35)"/><path d="M440.88,680.3h15.19c4.19,0,7.59-3.08,7.59-6.89s-3.4-6.88-7.59-6.88H440.88c-4.19,0-7.59,3.08-7.59,6.88S436.69,680.3,440.88,680.3Z" transform="translate(-155.13 -119.35)"/><path d="M600.34,680.3h15.19c4.19,0,7.59-3.08,7.59-6.89s-3.4-6.88-7.59-6.88H600.34c-4.19,0-7.59,3.08-7.59,6.88S596.15,680.3,600.34,680.3Z" transform="translate(-155.13 -119.35)"/><path class="cls-19" d="M801.73,247.75H761.19a4.12,4.12,0,1,1,0-8.2h40.54a4.12,4.12,0,1,1,0,8.2Z" transform="translate(-155.13 -119.35)"/><path class="cls-20" d="M640.05,362.56a6.27,6.27,0,0,1-2.12-.37,5.29,5.29,0,0,1-3.39-7l22.23-53.26a6.07,6.07,0,0,1,7.63-3.1,5.29,5.29,0,0,1,3.38,7l-22.22,53.26A5.93,5.93,0,0,1,640.05,362.56Z" transform="translate(-155.13 -119.35)"/><path class="cls-20" d="M725.64,362.56a5.92,5.92,0,0,1-5.51-3.47l-22.51-53.26a5.29,5.29,0,0,1,3.38-7,6.07,6.07,0,0,1,7.63,3.1l22.51,53.26a5.28,5.28,0,0,1-3.38,7A6.31,6.31,0,0,1,725.64,362.56Z" transform="translate(-155.13 -119.35)"/><path class="cls-21" d="M718.27,306.37h-70a7.85,7.85,0,0,1-7.83-5.91l-17.12-80c-.85-4,2-7.81,6.29-8.59s8.52,1.8,9.37,5.77l15.85,74h63.49c4.4,0,8,3.28,8,7.32S722.67,306.37,718.27,306.37Z" transform="translate(-155.13 -119.35)"/><path class="cls-22" d="M747.63,272.85a13.58,13.58,0,0,0-10.91-5.3H706.39l.85-49.33A16.21,16.21,0,0,0,702,206.15a19.23,19.23,0,0,0-13-5.08l-7.86-.06a28.73,28.73,0,0,0-19.51,7.32,24.12,24.12,0,0,0-8.06,17.87l.15,49a16.2,16.2,0,0,0,5.45,12,19.13,19.13,0,0,0,13.08,4.66H706v0h11.35L693.79,346c-2.68,6.21.64,13.24,7.41,15.7s14.43-.58,17.11-6.8L749,284.11A11.3,11.3,0,0,0,747.63,272.85Z" transform="translate(-155.13 -119.35)"/><ellipse class="cls-3" cx="539.98" cy="57.22" rx="24.25" ry="22.26"/><path class="cls-5" d="M749.91,279.78a11.44,11.44,0,0,0-2.28-6.93,13.57,13.57,0,0,0-10.91-5.29H706.39l-52.63,8.95a16.26,16.26,0,0,0,5.38,10.61,18.85,18.85,0,0,0,12.06,4.64h46.13L693.79,346c-2.68,6.21.63,13.24,7.41,15.7a12.4,12.4,0,0,0,1.27.4c6.44,1.67,13.33-1.37,15.84-7.2L749,284.11A11.16,11.16,0,0,0,749.91,279.78Z" transform="translate(-155.13 -119.35)"/><path class="cls-23" d="M779.67,263.26h-61.6a5.44,5.44,0,1,1,0-10.84h61.6a5.44,5.44,0,1,1,0,10.84Z" transform="translate(-155.13 -119.35)"/><path class="cls-24" d="M735.92,248.56a4.54,4.54,0,0,1-3.8-2L714.28,219.5a3.89,3.89,0,0,1,1.5-5.58,4.66,4.66,0,0,1,6.08,1.38l17.84,27.09a3.88,3.88,0,0,1-1.5,5.58A4.64,4.64,0,0,1,735.92,248.56Z" transform="translate(-155.13 -119.35)"/><path class="cls-3" d="M685.32,257.92l-17.55-36.56c-2.38-5,.07-10.76,5.47-12.94s11.72.06,14.1,5L701,241.91l34.53-10.19c5.63-1.66,11.65,1.17,13.46,6.34s-1.28,10.69-6.91,12.35l-43.7,12.9C693.21,264.84,687.55,262.55,685.32,257.92Z" transform="translate(-155.13 -119.35)"/><path class="cls-25" d="M677.18,241l20-7.07-9.82-20.44c-2.38-5-8.69-7.21-14.1-5s-7.85,8-5.47,12.94Z" transform="translate(-155.13 -119.35)"/><path class="cls-26" d="M857.48,362.56c-7,0-12.73-5.24-12.73-11.7V257.42c0-6.46,5.7-11.69,12.73-11.69s12.74,5.23,12.74,11.69v93.45C870.22,357.32,864.52,362.56,857.48,362.56Z" transform="translate(-155.13 -119.35)"/><path class="cls-27" d="M826.74,362.56c-7,0-12.74-5.24-12.74-11.7V257.42c0-6.46,5.7-11.69,12.74-11.69s12.73,5.23,12.73,11.69v93.45C839.47,357.32,833.77,362.56,826.74,362.56Z" transform="translate(-155.13 -119.35)"/><path class="cls-9" d="M814,257.42h56.22V183.85c0-8.37-7.39-15.15-16.51-15.15h-23.2c-9.12,0-16.51,6.78-16.51,15.15v73.57Z" transform="translate(-155.13 -119.35)"/><ellipse class="cls-13" cx="687.43" cy="21.49" rx="23.41" ry="21.49"/><path class="cls-13" d="M845.89,236.38,801.42,248.9c-6.11,1.72-12.57-1.43-14.44-7s1.56-11.53,7.66-13.25l36.21-10.19-.4-33.33c-.07-5.86,5-10.66,11.43-10.72s11.61,4.63,11.68,10.49l.5,41.25A10.74,10.74,0,0,1,845.89,236.38Z" transform="translate(-155.13 -119.35)"/><path class="cls-28" d="M841.88,174.38c-6.39.06-11.5,4.87-11.43,10.72l.27,22.64,23.12.17-.28-23C853.49,179,848.26,174.31,841.88,174.38Z" transform="translate(-155.13 -119.35)"/></g></svg>